<?xml version="1.0" standalone="no"?>
<!DOCTYPE svg PUBLIC "-//W3C//DTD SVG 20010904//EN"
 "http://www.w3.org/TR/2001/REC-SVG-20010904/DTD/svg10.dtd">
<svg version="1.0" xmlns="http://www.w3.org/2000/svg"
 width="640.000000pt" height="360.000000pt" viewBox="0 0 640.000000 360.000000"
 preserveAspectRatio="xMidYMid meet">

<g transform="translate(0.000000,360.000000) scale(0.100000,-0.100000)"
fill="#000000" stroke="none">
<path d="M2530 2700 c-9 -6 -81 -9 -172 -8 -144 3 -159 1 -171 -16 -13 -18
-15 -18 -40 -1 -16 10 -27 13 -27 6 0 -6 -10 -11 -22 -11 -13 0 -29 -4 -37 -9
-21 -14 18 -23 54 -12 31 9 95 4 95 -8 0 -3 44 -3 97 0 54 4 152 7 219 8 66 1
169 4 227 7 l106 7 -67 23 c-72 25 -232 33 -262 14z"/>
<path d="M1166 2670 c11 -58 24 -79 17 -30 -3 25 -10 49 -14 55 -6 5 -7 -5 -3
-25z"/>
<path d="M1203 2684 c-9 -25 5 -86 27 -109 11 -12 20 -27 20 -33 0 -7 14 -25
30 -40 20 -20 30 -39 30 -58 0 -41 -9 -49 -54 -49 -34 0 -41 4 -47 25 -7 23
-7 23 -8 -7 -1 -29 -3 -32 -23 -24 -16 6 -25 19 -28 41 -8 53 -30 50 -30 -3 0
-50 -9 -57 -64 -54 -20 1 -30 8 -32 20 -4 27 -14 34 -24 17 -5 -8 -5 -21 0
-30 8 -14 1 -17 -47 -18 -59 -2 -68 5 -14 12 17 2 34 6 38 9 8 9 -18 177 -28
177 -5 0 -9 -7 -9 -16 0 -12 -7 -15 -30 -12 -28 4 -30 2 -30 -28 0 -18 -4 -35
-10 -39 -13 -8 -49 26 -43 41 3 8 0 14 -5 14 -6 0 -13 8 -15 18 -4 13 -5 12
-7 -5 -4 -39 -5 -41 -13 -49 -4 -4 -7 -2 -7 4 0 7 -6 12 -14 12 -23 0 -47 40
-36 60 9 18 4 30 -12 30 -5 0 -6 -4 -3 -10 3 -5 -1 -10 -10 -10 -9 0 -14 -4
-11 -9 7 -11 -25 -101 -36 -101 -4 0 -8 7 -8 16 0 8 -4 13 -8 10 -4 -3 -19 13
-32 35 -27 43 -45 50 -55 20 -7 -22 -32 -19 -52 6 -9 12 -11 -1 -8 -59 2 -40
0 -61 -3 -46 -9 37 -37 22 -30 -16 8 -39 -25 -55 -41 -20 -15 34 -14 44 7 45
9 0 12 3 5 6 -7 2 -15 20 -19 39 -9 48 -20 50 -16 3 3 -31 1 -39 -12 -39 -9 0
-16 8 -16 19 0 11 -5 23 -11 26 -6 4 -9 0 -7 -10 2 -10 -2 -20 -9 -22 -8 -3
-11 11 -10 46 2 49 10 64 20 39 3 -7 6 -1 6 13 1 15 -8 38 -20 53 -17 22 -24
24 -41 15 -15 -8 -19 -8 -14 0 4 6 3 11 -2 11 -11 0 -22 -24 -22 -46 0 -9 5
-12 10 -9 7 4 9 -2 4 -19 -4 -16 -2 -26 5 -26 6 0 11 -7 11 -15 0 -14 12 -20
33 -16 5 1 6 -3 2 -9 -3 -6 -11 -8 -16 -5 -5 4 -9 0 -9 -8 0 -13 -42 -16 -80
-6 -12 3 -15 -6 -13 -51 l2 -55 -14 60 c-7 33 -16 86 -20 118 -5 38 -13 60
-24 66 -20 11 -71 3 -71 -11 0 -6 9 -8 20 -5 11 3 20 1 20 -4 0 -5 -10 -10
-22 -10 -17 -1 -19 -2 -5 -6 18 -5 24 -23 7 -23 -5 0 -10 -8 -10 -17 0 -15 2
-16 10 -3 7 11 9 8 9 -15 -2 -52 -13 -78 -36 -81 -18 -3 -24 3 -33 36 -15 58
-23 49 -18 -20 3 -48 2 -57 -9 -48 -11 8 -13 -7 -13 -81 0 -74 3 -91 15 -91 8
0 15 -5 15 -11 0 -6 -7 -9 -15 -5 -10 4 -15 -1 -15 -15 0 -20 5 -21 149 -18
118 2 153 0 167 -12 22 -18 198 -15 269 6 54 15 129 18 269 9 53 -3 92 -2 99
5 6 6 18 6 36 -1 32 -12 316 -2 343 13 12 6 24 6 37 0 10 -6 21 -7 25 -4 6 6
33 8 396 18 124 4 243 9 265 11 22 3 54 5 72 6 18 1 30 5 27 10 -3 4 4 8 15 8
12 0 21 7 21 15 0 18 -31 35 -64 35 -14 0 -26 5 -26 10 0 12 10 12 190 15 74
1 149 5 166 9 24 5 33 3 37 -8 8 -20 27 -21 27 -1 0 8 8 15 18 15 9 1 28 7 42
15 22 12 22 14 5 15 -27 0 -6 18 25 20 58 5 61 2 58 -40 -3 -54 14 -69 37 -34
12 19 14 29 7 32 -18 6 -14 39 6 47 9 4 39 12 67 19 l49 11 -33 22 -34 21 66
-2 c36 0 63 2 60 7 -2 4 -56 7 -119 7 -64 0 -113 -4 -110 -9 3 -5 -60 -8 -142
-8 -82 0 -138 3 -127 8 19 7 19 8 -2 8 -15 1 -21 6 -17 16 5 12 -9 14 -93 13
-54 -1 -101 -6 -104 -11 -4 -5 -12 -6 -19 -2 -7 4 -51 9 -99 10 -114 3 -111 3
-111 20 0 8 -8 15 -17 16 -10 0 -30 2 -45 4 -27 4 -28 2 -28 -43 -1 -31 -4
-42 -9 -32 -13 24 -21 79 -12 84 4 3 38 7 74 8 36 2 63 7 60 12 -3 4 4 5 15 2
11 -4 23 -2 27 4 3 6 -3 10 -15 10 -12 0 -18 5 -15 10 3 6 18 10 32 10 44 0
17 12 -34 16 -26 1 -57 5 -68 7 -11 3 -26 6 -32 6 -7 1 -13 9 -14 19 -1 11 -4
8 -9 -8 l-7 -25 -11 25 -11 25 0 -26 c-1 -22 -5 -25 -30 -21 -19 2 -32 12 -36
26 l-8 21 -4 -22 c-2 -13 -8 -23 -13 -23 -4 0 -11 -11 -14 -25 -4 -14 -11 -25
-17 -25 -6 0 -8 4 -5 9 4 5 2 20 -3 32 l-8 24 -9 -25 c-4 -14 -8 -29 -9 -35 0
-5 -10 -10 -23 -9 -27 1 -29 -22 -2 -29 13 -3 20 0 20 9 0 8 5 14 10 14 6 0
10 -4 10 -10 0 -11 33 -14 44 -3 13 13 35 11 48 -5 11 -13 10 -15 -10 -10 -13
4 -20 2 -16 -4 4 -6 -1 -8 -14 -4 -37 12 -93 -28 -77 -55 3 -5 20 -13 38 -18
l32 -9 -36 -1 c-19 -1 -40 -6 -46 -12 -9 -9 -16 -8 -28 5 -15 15 -15 16 4 16
12 0 21 6 21 15 0 8 -4 15 -10 15 -5 0 -6 8 -3 17 6 15 5 16 -9 3 -9 -8 -12
-17 -7 -18 13 -5 0 -22 -17 -22 -9 0 -14 8 -13 18 4 30 -13 93 -24 89 -7 -2
-10 -23 -8 -50 2 -37 -1 -47 -13 -47 -19 0 -21 16 -3 23 7 3 4 6 -7 6 -15 1
-17 -4 -11 -26 4 -19 3 -25 -4 -18 -5 6 -13 26 -18 45 -12 48 -37 46 -41 -2
-3 -33 0 -38 17 -38 12 0 21 -7 21 -15 0 -8 -3 -14 -7 -14 -25 4 -53 -2 -48
-11 3 -5 -3 -10 -13 -10 -11 0 -23 8 -26 17 -7 17 9 33 32 33 7 0 12 14 12 36
0 31 -2 35 -21 29 -15 -5 -19 -4 -15 4 4 6 13 11 21 11 8 0 18 7 23 16 6 11
11 13 16 5 11 -17 26 -13 26 7 0 10 5 23 12 30 9 9 7 11 -9 8 -12 -3 -30 4
-42 15 -23 21 -76 26 -85 7 -3 -7 -4 -1 -2 15 2 15 0 27 -4 27 -11 0 -18 -22
-15 -50 1 -14 3 -31 4 -37 0 -7 6 -13 12 -13 5 0 7 5 4 10 -3 6 -1 10 4 10 6
0 11 -7 11 -15 0 -11 -11 -15 -42 -15 -38 0 -40 1 -27 18 11 12 13 28 8 52
l-6 35 -2 -36 c-1 -35 -3 -37 -39 -41 -62 -5 -72 0 -72 38 0 25 4 34 16 34 9
0 14 -6 11 -13 -3 -8 0 -14 6 -14 7 0 20 -4 29 -8 12 -5 20 -2 24 9 9 23 3 26
-45 31 -31 3 -43 0 -48 -11z m-1043 -80 c0 -2 -7 -4 -15 -4 -8 0 -15 4 -15 10
0 5 7 7 15 4 8 -4 15 -8 15 -10z m183 -8 c4 -10 0 -12 -15 -8 -15 4 -17 7 -6
13 17 11 15 11 21 -5z m-187 -21 c-3 -8 -1 -15 5 -15 6 0 7 -4 4 -10 -11 -18
-25 -10 -25 15 0 14 5 25 11 25 6 0 9 -7 5 -15z m14 -59 c0 -3 -4 -8 -10 -11
-5 -3 -10 -1 -10 4 0 6 5 11 10 11 6 0 10 -2 10 -4z m370 -16 c0 -5 -4 -10
-10 -10 -5 0 -10 5 -10 10 0 6 5 10 10 10 6 0 10 -4 10 -10z m1278 3 c-9 -3
-19 -12 -22 -21 -4 -10 -16 -17 -31 -17 -17 0 -24 4 -20 13 3 8 5 17 5 22 0 5
19 8 43 8 23 -1 34 -3 25 -5z m513 -2 c6 11 11 11 20 2 10 -10 6 -15 -15 -23
-36 -13 -56 -13 -36 1 12 8 10 9 -7 4 -13 -4 -23 -2 -23 4 0 12 44 19 49 7 2
-4 7 -2 12 5z m-74 -17 c-3 -3 -12 -4 -19 -1 -8 3 -5 6 6 6 11 1 17 -2 13 -5z
m-217 -15 c0 -5 -4 -7 -10 -4 -5 3 -10 1 -10 -5 0 -7 12 -9 34 -5 44 9 76 -2
76 -23 0 -15 -2 -15 -10 -2 -8 13 -10 12 -10 -2 0 -13 8 -18 33 -19 l32 -1
-32 -14 c-17 -7 -46 -16 -65 -18 -18 -3 -27 -3 -20 0 17 8 15 27 -2 21 -8 -3
-20 1 -27 9 -15 18 -106 15 -114 -3 -2 -7 -9 -13 -15 -13 -6 0 -5 7 2 20 8 12
24 20 40 20 18 0 28 5 28 15 0 8 9 15 20 15 11 0 20 5 20 10 0 6 7 10 15 10 8
0 15 -5 15 -11z m637 -14 c-8 -17 -13 -20 -15 -10 -2 8 -8 15 -13 15 -6 0 -7
-4 -4 -10 3 -6 -1 -7 -10 -4 -9 4 -23 0 -33 -9 -10 -9 -24 -12 -36 -7 -22 7
-26 6 74 35 25 8 46 14 47 14 0 1 -4 -10 -10 -24z m-392 -15 c0 -19 -6 -24
-27 -25 -23 -2 -28 2 -28 21 0 12 6 24 13 27 25 9 42 0 42 -23z m50 20 c-9
-14 8 -12 24 3 11 10 12 9 6 -2 -6 -11 -4 -13 11 -8 18 7 18 7 0 -8 -28 -22
-56 -19 -56 5 0 11 5 20 11 20 5 0 7 -4 4 -10z m165 -1 c0 -10 -32 -21 -63
-23 -29 -1 -42 7 -34 22 6 9 97 10 97 1z m250 2 c0 -4 -11 -6 -25 -3 -14 2
-25 6 -25 8 0 2 11 4 25 4 14 0 25 -4 25 -9z m-550 -27 c0 -20 -4 -25 -16 -20
-9 3 -22 6 -30 6 -8 0 -14 9 -14 20 0 16 7 20 30 20 26 0 30 -4 30 -26z m-395
-4 c3 -5 1 -10 -4 -10 -6 0 -11 5 -11 10 0 6 2 10 4 10 3 0 8 -4 11 -10z
m-1087 -16 c6 4 24 3 39 -1 27 -7 27 -7 -12 -14 -39 -7 -55 1 -55 26 0 6 4 4
9 -4 5 -7 14 -11 19 -7z m139 10 c-3 -3 -12 -4 -19 -1 -8 3 -5 6 6 6 11 1 17
-2 13 -5z m753 -4 c0 -5 -5 -10 -11 -10 -5 0 -7 5 -4 10 3 6 8 10 11 10 2 0 4
-4 4 -10z m50 1 c0 -5 -9 -7 -20 -4 -11 3 -20 7 -20 9 0 2 9 4 20 4 11 0 20
-4 20 -9z m40 5 c0 -11 -19 -15 -25 -6 -3 5 1 10 9 10 9 0 16 -2 16 -4z m37
-2 c-3 -3 -12 -4 -19 -1 -8 3 -5 6 6 6 11 1 17 -2 13 -5z m-286 -14 c18 0 8
-21 -16 -32 -13 -6 -22 -14 -20 -18 7 -12 -41 -29 -56 -20 -7 5 -10 12 -6 17
5 4 12 1 17 -7 8 -12 10 -11 10 5 0 11 9 26 20 33 12 7 18 18 14 24 -5 8 -1 9
10 5 10 -4 22 -7 27 -7z m244 -20 c3 5 10 10 15 10 6 0 2 -9 -7 -20 -13 -14
-20 -17 -30 -8 -7 6 -13 15 -13 20 0 6 6 6 14 -1 10 -8 16 -9 21 -1z m295 -14
c0 -21 -5 -25 -29 -24 l-28 1 20 23 c26 30 37 30 37 0z m37 8 c-3 -3 -12 -4
-19 -1 -8 3 -5 6 6 6 11 1 17 -2 13 -5z m-1157 -14 c-8 -5 -22 -10 -30 -10
-13 0 -13 1 0 10 8 5 22 10 30 10 13 0 13 -1 0 -10z m705 -10 c-3 -6 4 -10 17
-10 18 0 20 -2 8 -10 -12 -8 -10 -10 8 -10 13 0 20 4 17 10 -3 6 -2 10 4 10
14 0 21 -14 13 -27 -8 -13 -100 -12 -119 0 -9 6 -13 1 -13 -13 0 -16 4 -20 16
-16 8 3 22 -1 31 -10 14 -13 13 -14 -13 -8 -16 4 -33 9 -39 13 -10 6 -16 8
-36 10 -8 1 -8 6 1 16 7 8 8 15 2 15 -5 0 -15 -7 -22 -15 -7 -8 -20 -14 -29
-14 -13 1 -12 2 2 6 10 3 16 11 13 18 -6 17 16 27 84 35 30 4 56 8 58 9 2 0 0
-3 -3 -9z m332 -3 c7 0 14 -6 17 -14 4 -11 1 -11 -15 -2 -17 8 -23 7 -34 -7
-11 -16 -15 -16 -30 -4 -16 13 -16 15 1 27 10 7 25 11 34 7 8 -3 20 -7 27 -7z
m-1403 -9 c-7 -11 -34 -10 -34 1 0 6 9 9 19 8 11 0 17 -5 15 -9z m106 -13 c0
-8 5 -15 11 -15 5 0 7 -5 3 -11 -5 -8 -9 -7 -15 4 -6 10 -17 13 -31 9 -20 -5
-21 -6 -3 -12 18 -6 18 -7 -1 -12 -15 -4 -20 0 -22 18 -2 21 10 30 46 33 6 0
12 -6 12 -14z m570 -5 c3 -5 16 -10 30 -13 14 -2 -3 -6 -37 -7 -35 -2 -69 -3
-75 -4 -7 -1 -12 5 -10 12 1 6 -2 12 -8 12 -5 0 -10 4 -10 9 0 10 103 1 110
-9z m510 -5 c0 -8 -5 -15 -11 -15 -5 0 -8 4 -5 9 4 5 0 12 -6 14 -8 3 -6 6 5
6 9 1 17 -6 17 -14z m-1173 -14 c-3 -12 -1 -21 4 -21 5 0 9 -13 9 -30 0 -16
-5 -30 -11 -30 -6 0 -9 7 -5 15 4 11 -3 15 -27 17 l-32 1 35 5 35 5 -30 6
c-16 4 -43 5 -60 2 -26 -3 -27 -5 -10 -12 19 -7 19 -8 -2 -8 -13 -1 -23 4 -23
9 0 15 -97 13 -103 -2 -3 -8 -6 -5 -6 6 -1 18 -11 19 -53 1 -11 -4 -18 -3 -18
4 0 6 8 11 18 11 9 0 29 8 45 18 21 15 50 19 133 21 104 2 107 2 101 -18z
m323 10 c0 -6 -17 -7 -37 -4 -52 8 -54 13 -5 13 23 0 42 -4 42 -9z m453 -8
c-7 -2 -19 -2 -25 0 -7 3 -2 5 12 5 14 0 19 -2 13 -5z m-276 -9 c-3 -3 -12 -4
-19 -1 -8 3 -5 6 6 6 11 1 17 -2 13 -5z m289 -19 c22 -21 8 -35 -34 -35 -34 0
-35 1 -16 15 10 8 15 15 9 15 -5 0 -3 5 5 10 19 13 19 13 36 -5z m-606 1 c0
-3 -4 -8 -10 -11 -5 -3 -10 -1 -10 4 0 6 5 11 10 11 6 0 10 -2 10 -4z m145
-34 l50 -10 -60 -1 c-58 -1 -60 0 -61 25 -2 21 0 22 10 10 6 -8 34 -19 61 -24z
m605 28 c-20 -13 -33 -13 -25 0 3 6 14 10 23 10 15 0 15 -2 2 -10z m-1093 -16
c-3 -3 -12 -4 -19 -1 -8 3 -5 6 6 6 11 1 17 -2 13 -5z m1273 -14 c-8 -5 -31
-10 -50 -10 -45 0 -24 14 27 17 28 2 34 0 23 -7z m-1130 -16 c0 -2 -12 -4 -26
-4 -14 0 -23 4 -20 9 6 8 46 4 46 -5z m-152 -1 c-10 -2 -26 -2 -35 0 -10 3 -2
5 17 5 19 0 27 -2 18 -5z m85 0 c-7 -2 -19 -2 -25 0 -7 3 -2 5 12 5 14 0 19
-2 13 -5z"/>
<path d="M2955 2691 c-3 -5 -1 -12 5 -16 5 -3 10 1 10 9 0 18 -6 21 -15 7z"/>
<path d="M1800 2680 c0 -5 5 -10 11 -10 5 0 7 5 4 10 -3 6 -8 10 -11 10 -2 0
-4 -4 -4 -10z"/>
<path d="M3008 2683 c7 -3 16 -2 19 1 4 3 -2 6 -13 5 -11 0 -14 -3 -6 -6z"/>
<path d="M3255 2672 c-3 -3 -25 -7 -48 -8 -23 -2 -67 -6 -97 -10 -53 -7 -94
-10 -172 -13 -31 -1 -35 -4 -31 -21 6 -21 -20 -29 -32 -10 -3 6 -1 10 6 10 7
0 10 3 6 6 -12 12 -82 7 -117 -9 l-35 -15 30 -1 c17 -1 37 -5 45 -11 9 -6 20
-5 29 3 12 10 13 9 7 -2 -7 -11 28 -13 210 -11 270 3 251 5 229 -20 -20 -22
-55 -27 -55 -7 0 9 -2 9 -9 -1 -6 -10 -28 -13 -74 -10 -36 1 -69 0 -72 -4 -4
-4 -17 -3 -29 2 -16 6 -36 2 -69 -15 -66 -31 -45 -43 73 -44 52 0 132 -3 178
-6 56 -4 81 -2 77 5 -10 16 12 12 29 -6 15 -14 17 -14 22 0 7 19 34 21 34 4 0
-7 5 -5 11 5 8 14 14 15 24 7 8 -6 11 -18 8 -26 -3 -8 -2 -14 3 -13 5 1 47 -2
94 -7 47 -5 92 -8 100 -7 81 12 163 16 390 18 300 3 411 14 354 36 -10 4 64 6
166 4 102 -2 165 0 141 3 -41 7 -71 32 -38 32 9 0 18 -6 20 -12 3 -7 6 -5 6 6
1 18 2 18 19 3 25 -22 29 -21 36 8 7 27 20 32 32 13 4 -6 3 -8 -3 -5 -6 4 -14
0 -17 -9 -8 -22 22 -44 54 -39 14 2 60 7 102 10 43 4 75 11 72 16 -3 5 -16 9
-30 9 -14 0 -24 6 -24 14 0 8 -8 16 -17 18 -10 2 38 3 107 1 100 -1 116 0 80
8 -25 5 -79 12 -121 15 -61 5 -78 3 -91 -9 -11 -12 -28 -15 -59 -11 -24 3 -46
7 -49 9 -11 7 -263 6 -318 -1 -33 -4 -51 -11 -49 -18 3 -7 -4 -12 -14 -12 -11
0 -19 5 -19 11 0 14 -67 12 -82 -3 -9 -9 -9 -12 1 -12 7 0 9 -4 6 -10 -3 -5
-1 -10 6 -10 9 0 9 -3 -1 -14 -9 -12 -17 -12 -35 -4 -18 8 -28 8 -38 0 -10 -9
-18 -8 -33 2 -10 8 -15 18 -11 22 4 5 12 2 16 -5 6 -9 10 -10 12 -2 3 7 13 13
24 15 33 5 28 25 -10 32 -20 3 -38 4 -41 1 -3 -2 -6 -22 -7 -43 -2 -32 -7 -38
-28 -41 -20 -2 -28 3 -37 22 -15 32 -15 35 -1 35 5 0 7 -6 3 -12 -4 -7 2 -5
13 5 11 9 23 14 27 10 5 -5 7 1 5 11 -3 16 -13 20 -51 21 -27 2 -48 -2 -48 -7
0 -6 -7 -5 -16 3 -19 16 -63 19 -88 6 -12 -6 -16 -6 -12 1 3 5 -1 13 -10 16
-22 8 -26 8 -19 -4 3 -5 -3 -10 -14 -10 -12 0 -20 5 -19 12 3 12 -2 13 -49 16
-15 1 -25 10 -29 26 -6 25 -39 41 -50 25 -9 -16 -37 -10 -30 6 6 16 -9 21 -18
7 -3 -5 -26 -7 -52 -6 -26 2 -54 -1 -63 -6 -14 -8 -14 -10 -1 -11 8 -1 18 -1
23 0 4 0 7 -3 7 -9 0 -13 -60 -13 -80 0 -9 6 -17 5 -21 -2 -8 -12 -29 -2 -29
14 0 6 13 8 36 3 24 -4 34 -3 29 4 -8 14 -65 14 -85 1 -11 -7 -11 -10 -2 -10
7 0 11 -4 7 -10 -3 -6 -15 -6 -30 0 -16 6 -25 5 -28 -3 -2 -8 -5 -8 -11 1 -4
7 3 14 19 18 14 3 25 10 25 14 0 10 -20 8 -37 -3 -7 -5 -19 -5 -25 0 -15 9
-114 13 -123 5z m-26 -38 c12 -11 -11 -15 -23 -5 -8 7 -21 9 -27 5 -8 -4 -9
-3 -5 5 7 10 42 7 55 -5z m77 1 c-8 -8 -17 -15 -20 -15 -3 0 -3 7 0 15 4 8 13
15 21 15 12 0 12 -2 -1 -15z m440 -4 c-3 -5 1 -12 10 -15 9 -4 14 -9 11 -13
-9 -8 -38 17 -31 28 3 5 7 9 10 9 3 0 3 -4 0 -9z m-766 -11 c0 -5 -7 -7 -15
-4 -8 4 -15 8 -15 10 0 2 7 4 15 4 8 0 15 -4 15 -10z m105 -10 c-3 -5 -10 -10
-16 -10 -5 0 -9 5 -9 10 0 6 7 10 16 10 8 0 12 -4 9 -10z m418 -3 c2 -6 -2
-18 -9 -25 -8 -7 -14 -10 -14 -6 0 3 -6 1 -14 -5 -11 -9 -15 -8 -20 5 -10 25
-8 27 20 20 21 -6 25 -4 21 8 -4 9 -2 16 2 16 5 0 11 -6 14 -13z m-256 -3 c-3
-3 -12 -4 -19 -1 -8 3 -5 6 6 6 11 1 17 -2 13 -5z m403 -4 c8 -5 12 -11 10
-14 -3 -2 -14 2 -24 10 -22 15 -10 19 14 4z m-300 -10 c0 -5 -4 -10 -10 -10
-5 0 -10 5 -10 10 0 6 5 10 10 10 6 0 10 -4 10 -10z m404 -7 c-5 -5 -12 -12
-16 -18 -4 -6 -8 -2 -8 8 0 9 7 17 17 17 9 0 12 -3 7 -7z m-229 -30 c13 -18 9
-43 -7 -43 -5 0 -7 4 -3 9 3 5 1 12 -5 16 -11 7 -14 35 -4 35 4 0 12 -8 19
-17z m925 -8 c0 -7 8 -19 18 -24 16 -10 16 -10 -1 -11 -10 0 -21 8 -24 18 -4
9 -11 20 -17 24 -7 5 -4 8 7 8 9 0 17 -7 17 -15z m130 5 c0 -5 -5 -10 -11 -10
-5 0 -7 5 -4 10 3 6 8 10 11 10 2 0 4 -4 4 -10z m-1188 -7 c-6 -2 -10 -8 -8
-12 3 -3 -8 -6 -22 -5 -39 3 -40 6 -7 14 35 9 56 11 37 3z m358 -7 c0 -11 -19
-15 -25 -6 -3 5 1 10 9 10 9 0 16 -2 16 -4z m330 -17 c0 -19 -40 -33 -54 -19
-4 4 -15 6 -22 3 -8 -3 -14 1 -14 10 0 16 17 23 63 23 19 1 27 -4 27 -17z
m-774 -16 c-10 -10 -19 5 -10 18 6 11 8 11 12 0 2 -7 1 -15 -2 -18z m-146 7
c0 -5 -4 -10 -10 -10 -5 0 -10 5 -10 10 0 6 5 10 10 10 6 0 10 -4 10 -10z
m104 -12 c-3 -4 -9 -8 -15 -8 -5 0 -9 4 -9 8 0 5 7 9 15 9 8 0 12 -4 9 -9z
m447 -7 c-6 -10 -9 -20 -8 -22 1 -2 -4 2 -11 11 -12 14 -4 22 26 29 1 1 -2 -7
-7 -18z m271 0 c4 -3 -3 -8 -16 -9 -13 -1 -30 6 -37 15 -13 15 -11 16 16 9 17
-4 33 -11 37 -15z m-408 -7 c3 -8 2 -12 -4 -9 -6 3 -10 10 -10 16 0 14 7 11
14 -7z m240 4 c-3 -4 0 -8 7 -8 7 0 10 -2 8 -5 -7 -7 -49 6 -49 16 0 4 9 7 19
6 11 0 17 -5 15 -9z"/>
<path d="M1 2622 l-2 -47 36 -3 c35 -2 35 -2 33 35 -3 30 -9 39 -34 49 l-30
13 -3 -47z"/>
<path d="M938 2663 c7 -3 16 -2 19 1 4 3 -2 6 -13 5 -11 0 -14 -3 -6 -6z"/>
<path d="M3824 2655 c-10 -8 -14 -15 -8 -15 5 0 19 7 30 15 10 8 14 15 8 15
-5 0 -19 -7 -30 -15z"/>
<path d="M3876 2661 c-4 -5 0 -11 6 -14 7 -2 10 -8 6 -12 -4 -4 -14 -3 -21 3
-10 9 -18 8 -33 -2 -19 -15 -19 -15 124 -7 20 1 21 4 12 21 -8 15 -21 20 -50
20 -21 0 -41 -4 -44 -9z"/>
<path d="M201 2653 c-1 -7 -8 -10 -16 -7 -12 5 -12 0 -5 -28 6 -18 10 -45 10
-60 0 -21 5 -28 19 -28 17 0 19 5 14 38 -6 46 -21 101 -22 85z"/>
<path d="M856 2645 c-3 -8 -1 -15 4 -15 6 0 10 7 10 15 0 8 -2 15 -4 15 -2 0
-6 -7 -10 -15z"/>
<path d="M940 2639 c0 -5 5 -7 10 -4 6 3 10 8 10 11 0 2 -4 4 -10 4 -5 0 -10
-5 -10 -11z"/>
<path d="M1090 2635 c0 -8 4 -15 10 -15 5 0 7 7 4 15 -4 8 -8 15 -10 15 -2 0
-4 -7 -4 -15z"/>
<path d="M4030 2640 c-20 -5 -13 -8 30 -12 55 -4 68 -3 58 8 -10 9 -61 12 -88
4z"/>
<path d="M1559 2620 c24 -21 41 -19 41 6 0 9 -11 14 -32 14 l-33 -1 24 -19z"/>
<path d="M2030 2599 c0 -5 10 -9 22 -9 12 0 18 3 14 7 -10 11 -36 12 -36 2z"/>
<path d="M376 2592 c-3 -5 -1 -14 3 -20 6 -10 10 -10 20 1 9 12 8 16 -3 20 -9
4 -17 3 -20 -1z"/>
<path d="M1115 2570 c-3 -5 -2 -10 4 -10 5 0 13 5 16 10 3 6 2 10 -4 10 -5 0
-13 -4 -16 -10z"/>
<path d="M2538 2573 c7 -3 16 -2 19 1 4 3 -2 6 -13 5 -11 0 -14 -3 -6 -6z"/>
<path d="M620 2550 c0 -5 5 -10 10 -10 6 0 10 5 10 10 0 6 -4 10 -10 10 -5 0
-10 -4 -10 -10z"/>
<path d="M1040 2556 c0 -2 7 -6 15 -10 8 -3 15 -1 15 4 0 6 -7 10 -15 10 -8 0
-15 -2 -15 -4z"/>
<path d="M272 2520 c0 -14 2 -19 5 -12 2 6 2 18 0 25 -3 6 -5 1 -5 -13z"/>
<path d="M2475 2529 c-22 -4 -51 -5 -65 -2 -23 5 -24 4 -7 -9 14 -10 43 -13
105 -11 59 1 89 -2 94 -10 6 -9 10 -9 16 0 4 6 14 11 22 11 8 -1 42 0 74 0 99
3 56 13 -67 16 -63 2 -118 5 -123 8 -5 2 -27 1 -49 -3z"/>
<path d="M438 2506 c-3 -14 -1 -23 3 -20 5 3 9 1 9 -5 0 -9 29 -10 32 0 1 2
-3 13 -10 24 -6 11 -12 16 -12 10 0 -5 -4 -4 -9 3 -6 10 -10 7 -13 -12z"/>
<path d="M1114 2508 c3 -22 22 -29 20 -8 -3 25 -5 30 -14 30 -5 0 -8 -10 -6
-22z"/>
<path d="M1191 2510 c0 -31 14 -67 20 -54 3 5 0 25 -7 44 -11 30 -13 31 -13
10z"/>
<path d="M1 2474 c0 -11 3 -14 6 -6 3 7 2 16 -1 19 -3 4 -6 -2 -5 -13z"/>
<path d="M1073 2475 c0 -8 4 -15 9 -15 4 0 8 7 8 15 0 8 -4 15 -8 15 -5 0 -9
-7 -9 -15z"/>
<path d="M2844 2455 c-8 -29 -10 -133 -2 -154 l9 -25 20 34 c11 18 16 36 11
39 -12 8 -23 67 -16 86 4 10 20 15 44 15 22 0 42 5 45 11 5 7 -12 9 -50 7 -32
-2 -59 -7 -61 -13z"/>
<path d="M3003 2462 c-14 -9 -21 -181 -9 -200 12 -20 26 -13 26 12 0 13 8 27
18 31 16 6 16 7 0 19 -12 9 -18 30 -20 79 -2 49 -6 64 -15 59z"/>
<path d="M993 2439 c-1 -12 3 -16 13 -12 18 6 18 19 1 26 -7 3 -13 -3 -14 -14z"/>
<path d="M3137 2453 c-10 -9 -8 -226 2 -241 7 -11 10 -10 15 3 3 9 6 25 6 36
0 10 5 19 10 19 6 0 10 7 10 15 0 8 -5 15 -11 15 -7 0 -9 28 -7 80 3 75 -4 95
-25 73z"/>
<path d="M1080 2416 c0 -14 5 -28 10 -31 6 -3 10 5 10 19 0 14 -4 28 -10 31
-6 3 -10 -5 -10 -19z"/>
<path d="M3268 2338 c-4 -129 1 -190 15 -185 6 2 13 19 15 38 2 19 10 38 18
42 19 11 18 37 -1 37 -12 0 -15 16 -15 85 0 66 -3 85 -14 85 -11 0 -15 -23
-18 -102z"/>
<path d="M3938 2383 c7 -3 16 -2 19 1 4 3 -2 6 -13 5 -11 0 -14 -3 -6 -6z"/>
<path d="M3600 2284 c0 -97 -12 -120 -58 -111 -15 3 -40 2 -57 -1 l-30 -7 40
-7 c24 -4 4 -5 -50 -3 -71 3 -85 2 -65 -7 14 -6 67 -11 117 -12 51 -1 93 -3
94 -6 0 -3 3 -18 5 -35 3 -16 8 -32 10 -35 9 -8 24 24 24 51 0 25 2 26 78 32
174 14 204 52 37 48 -27 -1 -65 1 -83 4 l-32 6 2 84 c3 75 1 85 -14 85 -16 0
-18 -11 -18 -86z m190 -108 c0 -2 -9 -6 -20 -9 -11 -3 -20 -1 -20 4 0 5 9 9
20 9 11 0 20 -2 20 -4z"/>
<path d="M4190 2340 c0 -5 7 -7 15 -4 8 4 15 8 15 10 0 2 -7 4 -15 4 -8 0 -15
-4 -15 -10z"/>
<path d="M4238 2333 c7 -3 16 -2 19 1 4 3 -2 6 -13 5 -11 0 -14 -3 -6 -6z"/>
<path d="M4359 2307 c7 -7 14 -8 21 -1 6 6 2 10 -12 11 -16 2 -18 -1 -9 -10z"/>
<path d="M4405 2300 c3 -6 20 -10 37 -10 38 0 34 5 -10 13 -21 4 -31 3 -27 -3z"/>
<path d="M4535 2280 c-3 -4 5 -10 18 -14 32 -8 49 -7 43 3 -8 12 -55 20 -61
11z"/>
<path d="M4276 2219 c-3 -17 -6 -67 -6 -111 0 -75 -1 -80 -20 -75 -11 3 -18 2
-15 -3 3 -4 -1 -10 -9 -13 -8 -3 -17 0 -20 8 -2 7 -13 12 -23 10 -82 -17 -80
-15 -58 -31 16 -12 17 -16 6 -24 -16 -9 53 -21 99 -17 23 2 25 -2 30 -50 8
-81 28 -87 37 -11 9 66 18 78 63 78 54 0 89 15 86 37 -3 20 -74 37 -115 28
l-23 -6 6 106 c5 97 4 105 -13 105 -13 0 -20 -10 -25 -31z"/>
<path d="M4710 2238 c0 -4 16 -8 35 -8 19 0 35 2 35 4 0 2 -16 6 -35 8 -19 2
-35 0 -35 -4z"/>
<path d="M4796 2219 c3 -6 13 -9 22 -7 10 1 22 -1 29 -5 6 -4 14 -3 18 3 3 5
0 11 -7 11 -7 1 -25 3 -41 5 -16 2 -25 -1 -21 -7z"/>
<path d="M4886 2199 c2 -4 15 -6 29 -6 13 0 22 3 19 8 -3 5 -16 8 -29 7 -13
-1 -22 -5 -19 -9z"/>
<path d="M4954 2188 c-3 -4 4 -8 15 -8 12 0 21 4 21 8 0 5 -7 9 -15 9 -9 0
-18 -4 -21 -9z"/>
<path d="M5070 2176 c0 -2 7 -9 15 -16 12 -10 15 -10 15 4 0 9 -7 16 -15 16
-8 0 -15 -2 -15 -4z"/>
<path d="M4937 2113 c-4 -27 -9 -94 -13 -150 -6 -96 -13 -118 -29 -93 -4 6
-11 7 -17 4 -7 -5 -3 -11 11 -16 12 -4 20 -12 16 -18 -5 -9 -40 4 -55 20 -9
10 -60 10 -60 0 0 -5 -7 -7 -15 -4 -8 4 -15 2 -15 -4 0 -11 24 -20 95 -36 35
-8 51 -17 53 -29 6 -30 -6 -60 -33 -90 -22 -23 -29 -25 -46 -16 -14 7 -24 7
-33 0 -9 -7 -16 -7 -23 0 -6 6 -17 8 -24 3 -20 -12 -59 -14 -59 -2 0 5 -7 8
-15 5 -8 -4 -17 -2 -21 4 -3 5 -13 9 -22 8 -10 -1 -25 2 -36 6 -22 10 -40 -13
-24 -32 8 -10 -3 -12 -49 -11 -32 1 -60 5 -63 9 -3 4 -25 2 -49 -4 -37 -10
-44 -9 -56 6 -15 21 -31 22 -39 1 -5 -12 -10 -13 -19 -5 -8 6 -29 8 -50 4 -43
-7 -51 12 -12 27 22 8 24 12 13 29 -17 28 -56 33 -79 10 -25 -25 -24 -43 0
-36 12 3 22 -1 25 -9 8 -21 -27 -17 -71 7 l-37 21 -17 -21 c-17 -21 -18 -21
-31 -3 -17 25 -56 45 -73 38 -7 -2 -19 2 -25 9 -7 8 -16 12 -21 9 -5 -3 -9 1
-9 8 0 9 -3 9 -10 -2 -8 -12 -11 -13 -19 -1 -6 9 -11 10 -15 2 -11 -17 -35
-13 -59 10 -16 15 -30 19 -52 14 -108 -21 -202 -24 -191 -6 12 19 -30 52 -74
58 -24 4 -53 15 -65 25 -13 12 -28 17 -43 13 -12 -3 -31 -1 -41 5 -17 8 -20 6
-26 -20 -4 -18 -2 -36 4 -44 7 -9 7 -16 -1 -24 -15 -15 4 -38 48 -54 31 -11
34 -16 34 -51 l0 -39 70 4 70 4 0 -52 0 -52 -47 23 c-43 20 -51 21 -75 9 -15
-8 -30 -18 -33 -24 -11 -17 9 -35 40 -35 36 0 42 -28 8 -33 -27 -4 -28 -11 -8
-58 12 -30 17 -34 34 -25 33 18 45 12 21 -9 -18 -16 -21 -23 -12 -32 9 -9 12
-9 12 0 0 7 9 12 20 12 11 0 20 -5 20 -11 0 -5 -4 -7 -10 -4 -5 3 -10 1 -10
-4 0 -6 9 -11 20 -11 11 0 20 5 20 10 0 6 6 10 14 10 25 0 28 19 7 46 -12 15
-21 35 -21 46 0 11 -4 16 -10 13 -6 -4 -10 5 -10 19 0 14 -4 26 -10 26 -5 0
-10 5 -10 10 0 6 9 10 20 10 14 0 20 -7 20 -21 0 -11 13 -40 29 -63 26 -37 30
-52 31 -117 1 -41 1 -79 1 -86 -1 -9 -68 -38 -114 -47 -7 -2 -29 -10 -49 -20
-21 -9 -40 -16 -44 -16 -11 0 -69 -53 -67 -60 1 -4 -3 -7 -10 -6 -35 3 -1 -49
191 -296 58 -75 82 -114 80 -130 -2 -17 -35 20 -153 174 -82 107 -159 208
-171 224 -12 16 -23 24 -27 18 -3 -6 63 -104 148 -217 100 -134 155 -215 154
-230 -1 -20 -2 -20 -6 -2 -3 11 -14 33 -26 48 -15 22 -22 26 -28 16 -4 -8 -11
-10 -16 -6 -4 5 -2 12 6 16 9 6 -22 55 -118 184 -72 97 -131 180 -130 184 4
27 -3 73 -11 73 -14 0 -12 -43 3 -59 10 -11 9 -13 -5 -8 -17 6 -32 -18 -26
-44 2 -7 -14 -22 -35 -33 -21 -12 -40 -30 -43 -42 -5 -19 -9 -20 -55 -11 -41
8 -57 7 -90 -8 -47 -21 -64 -41 -28 -32 20 5 25 2 25 -13 0 -14 -4 -16 -13 -9
-7 6 -18 7 -25 2 -20 -12 -58 -10 -58 3 0 7 -4 15 -9 19 -6 3 -9 -4 -8 -15 1
-11 6 -20 11 -20 5 0 6 -3 3 -7 -9 -8 22 -43 38 -43 7 0 22 9 35 20 14 12 31
18 42 14 18 -5 19 -3 22 37 1 27 32 45 51 29 14 -11 10 -40 -8 -51 -6 -4 -5
-9 0 -12 6 -4 16 4 23 18 l13 24 38 -26 c25 -16 47 -24 64 -21 13 3 22 1 19
-3 -3 -5 0 -9 5 -9 6 0 11 -16 11 -35 0 -21 5 -35 13 -35 16 1 77 16 100 25
14 6 17 2 17 -27 0 -28 -5 -35 -29 -44 -25 -10 -34 -8 -71 17 -49 33 -118 46
-159 30 -24 -10 -33 -9 -65 10 -29 17 -40 19 -46 10 -6 -10 -12 -10 -30 1 -18
10 -24 10 -27 1 -3 -9 -10 -10 -22 -3 -42 22 -115 -27 -80 -53 14 -11 15 -16
4 -30 -16 -22 -24 -22 -19 1 7 24 -53 24 -71 -1 -10 -14 -14 -15 -18 -4 -6 17
11 37 30 37 7 0 13 5 13 10 0 6 -4 10 -9 10 -5 0 -7 9 -4 20 3 11 0 20 -6 20
-6 0 -11 -6 -11 -12 -1 -8 -6 -6 -14 5 -22 29 -71 41 -98 24 -13 -8 -34 -17
-48 -21 -15 -4 -43 -31 -70 -67 -50 -67 -77 -96 -101 -110 -14 -7 -18 -2 -24
27 -4 23 -11 34 -19 31 -9 -4 -11 2 -8 19 5 27 9 28 47 14 21 -8 26 -7 22 2
-2 7 -12 12 -21 12 -23 -2 -20 13 5 19 20 5 19 7 -13 43 -31 34 -92 70 -112
65 -5 -1 -6 5 -2 14 3 10 2 14 -5 10 -6 -4 -18 0 -28 9 -10 9 -24 16 -32 14
-7 -2 -15 5 -17 15 -2 9 2 17 8 17 14 0 101 -44 142 -73 33 -22 110 -18 137 7
10 9 25 16 34 16 48 0 -1 40 -66 54 -34 8 -27 22 16 32 28 6 29 8 12 14 -11 4
-24 5 -28 3 -5 -3 -17 4 -27 15 -14 14 -16 22 -7 25 16 5 23 253 7 272 -9 10
-6 15 12 21 13 4 30 8 38 9 8 1 22 5 30 8 8 4 41 16 72 27 l58 21 84 -27 c47
-15 83 -31 80 -36 -3 -5 -10 -6 -15 -3 -5 4 -9 1 -9 -4 0 -6 4 -11 8 -11 5 0
4 -23 -2 -50 -7 -34 -14 -49 -23 -46 -16 6 -27 -10 -13 -19 17 -11 122 15 117
29 -3 8 5 12 27 11 44 -2 107 15 99 28 -3 6 -1 7 5 3 7 -4 12 -32 12 -67 0
-46 3 -59 15 -59 8 0 15 -4 15 -8 0 -4 -18 -8 -40 -9 -38 -2 -40 0 -40 26 0
17 7 31 16 35 13 5 14 9 4 21 -8 9 -19 11 -33 6 -16 -6 -21 -17 -21 -46 -1
-35 -4 -40 -32 -45 -55 -12 -59 -21 -18 -39 37 -17 43 -16 134 3 52 11 97 22
100 25 3 4 11 6 18 7 25 2 28 4 29 25 2 23 23 52 23 32 0 -13 80 15 93 32 4 7
10 6 15 -3 7 -10 12 -9 23 4 12 16 12 17 -2 12 -9 -4 -26 0 -37 7 -10 8 -23
11 -27 7 -4 -4 -2 3 4 16 7 12 16 20 22 16 5 -3 31 15 56 40 42 42 66 52 110
47 9 -1 8 8 -3 35 -9 20 -27 76 -40 123 -23 78 -44 123 -44 94 0 -6 -8 -13
-18 -15 -16 -5 -18 -13 -14 -64 2 -33 13 -79 23 -103 25 -57 24 -72 -7 -95
-25 -18 -25 -18 -13 2 10 16 10 26 -1 51 -15 37 -26 38 -68 7 -18 -13 -53 -31
-77 -41 -27 -10 -46 -23 -47 -33 0 -9 -2 -22 -2 -28 -1 -6 -9 -18 -18 -27 -15
-16 -16 -14 -13 19 3 40 -15 86 -31 80 -6 -2 -11 2 -11 10 0 7 5 10 11 7 6 -4
5 1 -2 10 -8 9 -11 25 -7 38 6 19 4 21 -14 16 -14 -3 -21 0 -21 9 0 8 -5 14
-12 14 -6 0 -9 3 -5 6 3 3 -1 24 -9 46 -7 22 -12 43 -10 47 3 4 1 13 -4 21 -6
10 -15 8 -40 -13 -17 -15 -36 -27 -41 -28 -34 -4 -54 -1 -52 8 1 6 -6 9 -17 6
-11 -3 -18 -9 -15 -13 2 -4 -1 -15 -8 -24 -10 -14 -12 -13 -12 13 -1 16 2 29
5 28 3 -1 6 3 7 8 1 6 -4 9 -12 7 -7 -1 -16 7 -20 18 -7 21 -7 21 -28 3 -12
-9 -16 -11 -9 -3 16 18 15 30 -1 30 -7 0 -33 -34 -56 -75 -24 -42 -48 -78 -53
-81 -6 -4 -2 5 7 19 9 15 14 31 11 36 -4 5 -2 12 4 16 13 8 13 25 0 25 -5 0
-10 -6 -10 -12 -1 -7 -12 -26 -26 -43 -26 -30 -26 -30 2 25 16 30 48 74 71 99
39 40 43 49 44 100 1 31 7 59 13 64 8 5 6 11 -5 20 -24 18 2 40 33 28 37 -14
43 -12 44 14 1 24 1 24 -97 24 -55 0 -99 -3 -99 -7 0 -4 -9 -13 -19 -19 -17
-11 -27 -7 -71 22 -49 33 -54 34 -116 28 -40 -4 -60 -9 -52 -14 7 -5 37 -6 66
-2 35 4 61 1 77 -7 24 -13 24 -13 4 -29 -12 -10 -39 -16 -70 -16 -27 0 -49 -4
-49 -8 0 -16 -84 5 -99 25 -18 21 -105 35 -116 18 -4 -6 -17 -3 -34 10 -16 10
-31 17 -34 14 -11 -11 -107 41 -107 58 0 21 -49 48 -87 48 -15 0 -64 7 -108
15 -44 9 -99 14 -122 11 -28 -3 -46 0 -53 9 -8 10 -17 11 -28 5 -10 -5 -29
-11 -45 -15 -22 -4 -27 -11 -28 -38 -2 -30 -2 -30 -6 -4 -5 31 -36 37 -69 12
-10 -8 -26 -15 -36 -15 -9 0 -29 -13 -45 -30 -15 -16 -35 -30 -44 -30 -9 0
-24 -9 -34 -20 -10 -11 -29 -20 -42 -20 -12 0 -23 -5 -23 -11 0 -7 -11 -8 -30
-4 -30 7 -30 6 -25 -28 4 -22 1 -38 -6 -43 -8 -5 -10 2 -7 24 5 36 -2 33 -59
-27 -18 -18 -43 -35 -55 -36 -13 -1 -29 -3 -35 -4 -7 0 -13 -8 -13 -16 0 -11
-11 -15 -38 -15 -52 0 -102 -16 -124 -40 -10 -11 -15 -20 -11 -20 4 0 -7 -9
-26 -21 -19 -11 -41 -27 -49 -36 -14 -14 -14 -17 1 -28 15 -11 16 -14 2 -25
-14 -11 -13 -14 2 -25 10 -8 14 -17 10 -21 -4 -5 -11 -3 -16 4 -4 6 -20 14
-37 18 -23 4 -34 0 -49 -17 l-20 -22 32 18 c47 27 53 10 10 -29 -25 -22 -35
-39 -31 -50 4 -11 1 -16 -10 -16 -9 0 -16 5 -16 11 0 7 -10 5 -25 -5 -13 -9
-42 -16 -63 -16 -38 0 -73 -22 -58 -37 3 -3 6 -1 6 6 0 7 5 9 11 5 8 -4 3 -12
-12 -21 -22 -13 -21 -14 26 -9 36 3 44 2 28 -4 -31 -13 -29 -15 12 -16 77 -1
49 -37 -51 -66 -98 -29 -129 -33 -119 -18 4 6 15 10 24 8 9 -3 25 4 35 14 25
23 17 23 -66 -3 -55 -18 -68 -26 -68 -42 0 -19 1 -20 13 -3 10 13 18 15 37 7
14 -5 18 -10 10 -10 -9 -1 -31 -11 -50 -24 -19 -12 -51 -22 -70 -22 -31 0 -35
3 -38 27 -3 26 -1 27 26 22 24 -5 32 -2 42 16 30 56 -106 101 -143 48 -13 -19
-16 -20 -16 -5 -1 9 -5 17 -10 17 -5 0 -16 3 -25 6 -11 4 -16 1 -16 -10 0 -9
-6 -16 -12 -16 -8 0 -5 -7 6 -15 19 -14 18 -15 -12 -15 -22 0 -32 -5 -32 -15
0 -8 7 -15 15 -15 18 0 18 -5 5 -31 -9 -16 -7 -19 12 -20 23 -1 23 -1 -2 -12
-24 -11 -26 -18 -29 -90 -3 -74 -2 -78 16 -69 10 5 27 6 38 2 18 -6 17 -9 -13
-27 -19 -12 -28 -23 -21 -25 8 -3 7 -9 -5 -20 -9 -10 -16 -33 -16 -57 l0 -40
50 -7 c61 -8 58 -20 -4 -18 l-46 1 0 -404 c1 -380 2 -404 18 -392 9 7 23 20
30 29 11 13 12 11 8 -13 -3 -19 -1 -27 10 -27 8 0 13 4 10 9 -7 10 32 47 40
38 4 -4 -1 -9 -10 -13 -9 -3 -16 -13 -16 -21 0 -12 33 -14 215 -12 201 2 215
4 215 21 0 10 -4 18 -8 18 -5 0 -9 7 -9 15 0 8 5 12 10 8 5 -3 6 3 2 16 -7 23
14 51 37 51 8 0 7 -4 -4 -11 -13 -7 -17 -22 -15 -64 l2 -54 635 -1 c417 0 630
3 620 10 -13 8 -12 10 3 10 9 0 17 6 17 14 0 12 20 26 36 26 2 0 4 -13 4 -29
l0 -30 640 -1 c431 0 640 3 640 10 0 5 -6 10 -12 10 -8 1 -6 6 4 14 10 7 16
16 13 20 -3 3 1 1 8 -5 9 -9 9 -13 0 -16 -7 -2 -9 -11 -6 -19 4 -11 29 -14
115 -14 104 0 110 1 97 18 -13 16 -13 16 7 0 18 -16 63 -17 529 -18 342 0 505
3 495 10 -13 9 -13 11 -1 19 16 10 44 3 36 -9 -7 -11 21 -20 65 -20 21 0 41 6
43 13 4 9 6 9 6 -1 1 -10 187 -12 936 -12 l935 1 0 584 c0 457 -3 584 -12 588
-9 4 -10 8 -2 14 6 4 12 43 13 85 2 68 0 78 -18 87 -24 13 -44 14 -37 2 4 -5
-3 -7 -14 -4 -11 3 -20 9 -20 13 0 15 39 21 59 11 11 -6 22 -11 25 -11 12 0 6
88 -6 93 -10 4 -10 6 0 6 9 1 12 38 12 151 l0 150 -25 0 c-14 0 -25 -1 -25 -2
-14 -126 -50 -322 -60 -328 -7 -4 -9 -13 -6 -19 10 -15 -5 -14 -48 4 -20 9
-41 13 -46 10 -6 -4 -16 -3 -22 1 -9 6 -5 10 12 15 18 5 10 7 -28 8 -49 1 -52
2 -42 20 12 24 13 31 1 31 -5 0 -13 -9 -16 -21 -5 -16 -10 -18 -21 -8 -8 6
-14 18 -14 25 0 8 -6 14 -14 14 -8 0 -23 11 -34 25 -11 14 -24 25 -30 25 -5 0
-25 14 -43 31 -18 16 -45 33 -61 36 -26 5 -28 9 -23 37 20 118 34 251 26 259
-5 5 -19 7 -32 5 -23 -3 -25 -9 -44 -158 -19 -143 -36 -194 -43 -128 -3 23
-10 29 -45 38 -112 28 -127 33 -127 46 0 10 -7 13 -23 9 -20 -5 -171 26 -182
37 -2 2 3 53 11 113 19 159 19 165 -11 165 -14 0 -25 -3 -25 -7 0 -25 -31
-279 -36 -299 -6 -23 -9 -24 -53 -18 -25 4 -56 8 -68 8 -25 0 -30 15 -11 34
17 17 29 15 22 -3 -7 -17 13 -20 50 -6 17 7 26 7 29 -2 3 -8 7 -5 12 6 9 21 2
30 -23 32 -9 1 -48 11 -87 22 -38 11 -102 26 -140 32 -39 7 -75 15 -81 19 -8
5 -8 43 1 137 6 72 11 131 11 131 -1 1 -11 4 -22 8 -19 6 -22 2 -27 -41z
m-2287 -272 c0 -6 -5 -13 -11 -17 -8 -4 -8 -9 0 -17 6 -6 11 -15 11 -20 0 -6
-12 2 -26 16 -14 14 -23 31 -19 37 8 13 45 13 45 1z m-81 -22 c-18 -11 -39
-11 -39 0 0 11 31 20 44 13 4 -2 2 -8 -5 -13z m833 -31 c-9 -9 -15 -9 -24 0
-10 10 -10 15 2 22 20 12 38 -6 22 -22z m1689 17 c20 -3 44 -13 52 -23 15 -17
15 -19 -3 -35 -11 -9 -29 -17 -40 -17 -12 0 -31 -6 -43 -14 -12 -8 -41 -17
-63 -21 -48 -6 -53 2 -44 70 7 53 25 58 141 40z m-2681 -95 c0 -5 -4 -10 -10
-10 -5 0 -10 5 -10 10 0 6 5 10 10 10 6 0 10 -4 10 -10z m3020 -4 c0 -2 -7 -7
-16 -10 -8 -3 -12 -2 -9 4 6 10 25 14 25 6z m-4329 -49 c-10 -9 -11 -8 -5 6 3
10 9 15 12 12 3 -3 0 -11 -7 -18z m-51 10 c0 -2 -10 -12 -22 -23 l-23 -19 19
23 c18 21 26 27 26 19z m2790 -13 c0 -8 -4 -12 -10 -9 -5 3 -10 10 -10 16 0 5
5 9 10 9 6 0 10 -7 10 -16z m-1635 -4 c3 -5 1 -10 -4 -10 -6 0 -11 5 -11 10 0
6 2 10 4 10 3 0 8 -4 11 -10z m1925 -6 c0 -2 -9 -4 -20 -4 -11 0 -20 4 -20 9
0 5 9 7 20 4 11 -3 20 -7 20 -9z m90 6 c0 -5 -7 -10 -16 -10 -8 0 -12 5 -9 10
3 6 10 10 16 10 5 0 9 -4 9 -10z m-3154 -46 c-15 -17 -18 -11 -10 22 6 25 8
26 14 9 4 -11 2 -25 -4 -31z m3237 26 c28 0 37 -3 28 -9 -7 -5 -10 -14 -7 -20
10 -15 -8 -14 -48 3 -35 15 -65 45 -32 33 10 -4 36 -7 59 -7z m1464 -22 c3
-11 14 -18 28 -18 29 0 41 -26 15 -33 -28 -7 -120 61 -99 74 18 11 51 -2 56
-23z m-1316 12 c48 0 50 -1 43 -22 -3 -13 -8 -25 -10 -27 -9 -10 -92 23 -103
41 -11 18 -11 20 4 14 9 -3 39 -6 66 -6z m184 -20 c-3 -5 -12 -10 -20 -10 -7
0 -15 -4 -17 -10 -4 -13 -45 -1 -52 16 -4 11 6 14 45 14 31 0 48 -4 44 -10z
m-2505 -16 c0 -7 -6 -11 -14 -8 -8 3 -24 0 -36 -6 -16 -9 -19 -15 -10 -25 13
-16 -3 -30 -22 -19 -10 5 -10 4 0 -7 10 -11 16 -11 35 0 15 9 13 3 -10 -19
-29 -30 -33 -32 -47 -17 -9 8 -12 17 -7 19 4 2 11 17 15 33 4 17 3 26 -1 20
-9 -11 -33 -18 -33 -10 0 3 16 15 36 28 41 25 94 32 94 11z m98 1 c-2 -1 -16
-5 -33 -9 l-30 -6 25 14 c14 8 28 12 33 9 5 -3 7 -6 5 -8z m497 -70 c-38 -77
-44 -85 -37 -49 3 19 1 25 -7 20 -6 -4 -11 -2 -11 4 0 6 -5 8 -12 4 -7 -4 -8
-3 -4 4 5 9 13 9 26 2 16 -8 22 -3 44 36 20 36 22 45 9 40 -13 -6 -14 -4 -3 9
28 34 25 -8 -5 -70z m2133 75 c23 0 42 -4 42 -9 0 -6 -16 -7 -35 -4 -26 4 -35
2 -33 -7 2 -7 -3 -15 -9 -17 -7 -3 -13 0 -13 5 0 6 -11 7 -27 3 -19 -5 -36 -3
-50 7 -38 24 -27 34 30 28 28 -3 71 -5 95 -6z m1092 -20 c0 -6 -7 -10 -15 -10
-8 0 -15 -4 -15 -9 0 -5 -10 -7 -22 -3 -21 5 -21 6 -2 13 10 4 13 8 5 8 -11 1
-11 4 -1 16 9 11 17 12 31 4 10 -5 19 -14 19 -19z m-925 6 c33 -3 107 -11 165
-17 58 -6 121 -11 140 -10 19 0 42 -4 50 -10 11 -8 7 -9 -18 -6 -20 2 -31 0
-29 -7 3 -6 9 -10 15 -9 6 2 9 -4 5 -13 -4 -11 0 -14 18 -12 13 2 30 7 37 11
7 5 12 4 12 -2 0 -6 8 -11 18 -11 13 -1 12 -4 -7 -14 -24 -13 -24 -14 -3 -25
11 -6 28 -18 36 -27 9 -8 21 -12 28 -8 8 5 2 12 -17 20 -29 12 -27 13 32 14
51 0 65 -3 75 -19 9 -16 14 -17 22 -7 8 10 25 11 61 6 28 -4 46 -8 41 -9 -5 0
-2 -8 5 -17 12 -15 11 -16 -11 -9 -14 4 -26 12 -28 16 -2 5 -11 9 -20 9 -15 0
-15 -2 -2 -10 11 -7 2 -10 -32 -10 -33 0 -48 -4 -48 -13 0 -8 -10 -13 -22 -13
-19 1 -23 -4 -23 -26 1 -16 -3 -28 -7 -28 -4 0 -8 -6 -8 -13 0 -19 -38 -19
-110 2 -71 21 -151 31 -274 36 -43 2 -84 9 -90 15 -8 9 -2 11 27 8 20 -2 37 0
37 4 0 8 -23 12 -47 9 -7 -1 -13 3 -13 9 0 13 68 13 106 0 16 -5 52 -12 79
-14 28 -2 52 -5 55 -6 3 -1 33 -1 66 0 36 1 65 -3 68 -9 4 -6 14 -11 23 -11
12 0 11 5 -7 20 -13 11 -32 20 -44 20 -12 0 -69 5 -128 10 -60 6 -143 12 -185
14 -43 2 -102 7 -130 11 -38 6 -53 4 -53 -4 0 -9 -5 -9 -22 0 -12 7 -35 13
-50 14 -15 1 -41 2 -58 3 -16 1 -39 11 -49 21 -11 11 -35 22 -53 24 -18 2 -32
9 -31 16 2 6 -3 11 -10 11 -8 0 -7 4 3 10 26 17 60 11 83 -14 15 -16 36 -25
62 -28 37 -3 40 -1 43 25 4 30 42 60 42 32 0 -9 -4 -13 -10 -10 -10 6 -11 5
-15 -32 -3 -27 34 -38 110 -35 28 2 84 -2 125 -8 41 -6 91 -13 110 -15 25 -4
31 -2 20 5 -8 5 -23 10 -32 10 -11 0 -15 5 -12 14 3 8 1 24 -6 35 -8 16 -8 21
2 21 7 0 0 7 -16 15 -34 18 -50 19 -40 3 5 -8 2 -9 -10 -5 -10 4 -25 7 -34 8
-10 1 -7 4 8 9 19 6 9 9 -40 10 -90 3 -93 4 -97 16 -2 7 7 10 24 9 15 -2 55
-6 88 -9z m-2315 0 c0 -2 -8 -10 -17 -17 -16 -13 -17 -12 -4 4 13 16 21 21 21
13z m-890 -20 c0 -3 -4 -8 -10 -11 -5 -3 -10 -1 -10 4 0 6 5 11 10 11 6 0 10
-2 10 -4z m2017 -18 c-3 -8 -6 -5 -6 6 -1 11 2 17 5 13 3 -3 4 -12 1 -19z
m1988 -8 c27 -14 41 -16 46 -9 5 8 8 8 13 0 4 -6 17 -12 29 -12 17 -1 18 -2 5
-6 -10 -2 -18 -8 -18 -13 0 -10 -43 0 -51 13 -4 5 -27 11 -51 14 -29 3 -45 10
-45 19 0 20 26 17 72 -6z m-4252 -5 c-3 -9 -8 -14 -10 -11 -3 3 -2 9 2 15 9
16 15 13 8 -4z m562 5 c-3 -5 -11 -10 -16 -10 -6 0 -7 5 -4 10 3 6 11 10 16
10 6 0 7 -4 4 -10z m365 -17 c-14 -10 -28 -17 -32 -15 -5 1 -8 -3 -8 -9 0 -5
-5 -7 -10 -4 -8 5 -7 11 1 21 8 10 14 11 19 4 5 -7 11 -6 20 5 7 8 17 15 23
15 6 0 0 -8 -13 -17z m345 7 c3 -6 -1 -7 -9 -4 -18 7 -21 14 -7 14 6 0 13 -4
16 -10z m2265 -10 c0 -5 -2 -10 -4 -10 -3 0 -8 5 -11 10 -3 6 -1 10 4 10 6 0
11 -4 11 -10z m-2988 -32 c-12 -12 -25 -18 -29 -14 -4 5 -2 11 5 13 7 3 18 11
25 18 7 7 14 11 16 9 3 -3 -5 -14 -17 -26z m53 22 c3 -5 12 -7 20 -3 8 3 15 0
15 -6 0 -16 -29 -14 -46 4 -9 8 -11 15 -5 15 5 0 12 -4 16 -10z m649 -47 c-17
-17 -18 -17 -11 0 4 10 7 28 8 40 l0 22 11 -22 c8 -17 7 -26 -8 -40z m-2108
19 c-9 -9 -37 8 -31 18 5 8 11 7 21 -1 8 -6 12 -14 10 -17z m787 11 c-10 -29
-14 -34 -24 -28 -5 4 -5 14 1 26 13 24 32 25 23 2z m847 13 c0 -2 -7 -6 -15
-10 -8 -3 -15 -1 -15 4 0 6 7 10 15 10 8 0 15 -2 15 -4z m534 -30 c-3 -14 -10
-26 -15 -26 -12 0 -11 4 3 35 14 31 21 26 12 -9z m-1954 -10 c-14 -14 -22 -2
-14 18 5 14 9 15 15 4 4 -7 4 -17 -1 -22z m820 24 c0 -5 -5 -10 -11 -10 -5 0
-7 5 -4 10 3 6 8 10 11 10 2 0 4 -4 4 -10z m197 -15 c0 -8 -7 -17 -14 -19 -8
-3 -11 -10 -8 -16 4 -6 -7 -13 -25 -16 -17 -4 -33 -11 -36 -15 -8 -14 -34 -10
-34 5 0 8 15 17 35 20 19 4 35 11 35 17 0 6 4 8 9 4 6 -3 15 4 21 15 13 24 17
25 17 5z m327 7 c-6 -4 -13 -13 -15 -21 -3 -8 -17 -15 -32 -17 -29 -3 -23 8
18 33 21 13 47 18 29 5z m3643 -8 c-3 -3 -12 -4 -19 -1 -8 3 -5 6 6 6 11 1 17
-2 13 -5z m153 -14 c0 -5 -4 -10 -10 -10 -5 0 -10 5 -10 10 0 6 5 10 10 10 6
0 10 -4 10 -10z m-3687 -7 c-7 -2 -21 -2 -30 0 -10 3 -4 5 12 5 17 0 24 -2 18
-5z m3662 -4 c12 -19 -5 -23 -22 -6 -16 16 -16 17 -1 17 9 0 20 -5 23 -11z
m-5135 -9 c0 -5 -5 -10 -11 -10 -5 0 -7 5 -4 10 3 6 8 10 11 10 2 0 4 -4 4
-10z m1070 1 c0 -5 -7 -12 -16 -15 -24 -9 -28 -7 -14 9 14 17 30 20 30 6z
m1010 5 c0 -3 -4 -8 -10 -11 -5 -3 -10 -1 -10 4 0 6 5 11 10 11 6 0 10 -2 10
-4z m2957 -2 c-3 -3 -12 -4 -19 -1 -8 3 -5 6 6 6 11 1 17 -2 13 -5z m-5127
-29 c-7 -9 -15 -13 -18 -10 -3 2 1 11 8 20 7 9 15 13 18 10 3 -2 -1 -11 -8
-20z m2712 8 c-6 -2 -10 -9 -6 -14 3 -5 0 -9 -5 -9 -12 0 -14 13 -4 23 3 4 11
7 17 6 6 0 5 -3 -2 -6z m2413 -4 c29 -1 30 -1 5 -9 -38 -12 -44 -11 -66 6 -18
15 -18 15 6 10 14 -3 39 -6 55 -7z m-3901 -14 c-10 -8 -23 -15 -28 -15 -6 0
-1 7 10 15 10 8 23 15 28 15 6 0 1 -7 -10 -15z m171 -5 c-3 -5 -1 -11 5 -15
12 -7 4 -25 -11 -25 -6 0 -7 5 -4 10 3 6 2 10 -4 10 -5 0 -13 -9 -16 -20 -4
-11 -11 -18 -16 -15 -8 6 -4 14 28 49 7 8 9 17 5 21 -4 5 -1 5 6 1 7 -4 10
-11 7 -16z m95 10 c0 -5 -5 -10 -11 -10 -5 0 -7 5 -4 10 3 6 8 10 11 10 2 0 4
-4 4 -10z m2719 -6 c2 -2 -10 -4 -27 -4 -18 0 -32 5 -32 10 0 9 47 4 59 -6z
m971 -4 c0 -5 -2 -10 -4 -10 -3 0 -8 5 -11 10 -3 6 -1 10 4 10 6 0 11 -4 11
-10z m190 -23 c0 -3 -9 -3 -20 0 -20 5 -25 15 -14 26 6 6 34 -16 34 -26z
m-485 13 c4 -6 -7 -10 -27 -9 -31 1 -32 1 -8 9 14 4 26 8 27 9 1 1 5 -3 8 -9z
m-4071 -31 c-10 -4 -32 -7 -49 -7 -30 1 -30 1 -2 5 15 2 27 8 27 13 0 4 10 6
22 2 21 -5 21 -6 2 -13z m153 6 c0 -8 -6 -15 -12 -15 -6 0 -12 7 -12 15 0 8 6
15 12 15 6 0 12 -7 12 -15z m314 -8 c-6 -8 -8 -17 -4 -20 3 -4 -1 -7 -10 -7
-9 0 -17 -7 -17 -15 0 -8 -4 -15 -8 -15 -5 0 -15 -11 -22 -25 -7 -14 -17 -25
-22 -25 -5 0 -4 9 2 20 6 11 7 20 3 20 -4 0 0 6 9 14 10 7 22 25 27 39 7 18
18 27 32 27 17 0 19 -3 10 -13z m3544 -10 c11 -2 0 -5 -25 -5 -25 0 -37 2 -27
5 9 2 17 10 17 16 0 9 2 9 8 1 4 -7 16 -14 27 -17z m631 4 c0 -15 -3 -17 -13
-9 -7 6 -10 14 -7 19 9 15 20 10 20 -10z m-4042 -6 c-4 -9 -15 -20 -25 -25
-24 -13 -39 -12 -16 1 9 6 14 15 11 21 -4 6 -2 8 4 4 6 -3 13 -2 17 4 9 15 15
12 9 -5z m3482 0 c18 -14 18 -14 -7 -15 -15 0 -29 7 -33 15 -7 19 14 19 40 0z
m423 -7 c0 -16 -2 -18 -6 -8 -3 8 -11 18 -17 22 -7 5 -4 8 7 8 11 0 17 -7 16
-22z m105 -7 c4 -5 -3 -7 -13 -4 -11 3 -22 11 -25 19 -4 11 -2 12 14 4 10 -5
21 -14 24 -19z m-677 13 c-3 -3 -12 -4 -19 -1 -8 3 -5 6 6 6 11 1 17 -2 13 -5z
m258 -4 c3 -6 -1 -7 -9 -4 -9 3 -16 2 -16 -4 0 -6 6 -12 13 -15 6 -2 -5 -5
-25 -5 l-38 0 23 19 c25 21 43 24 52 9z m213 -8 c6 -18 -15 -14 -22 4 -4 10
-1 14 6 12 6 -2 14 -10 16 -16z m276 3 c-4 -8 -10 -12 -15 -9 -11 6 -2 24 11
24 5 0 7 -7 4 -15z m-214 -5 c0 -5 -7 -10 -15 -10 -8 0 -15 5 -15 10 0 6 7 10
15 10 8 0 15 -4 15 -10z m-4320 -21 c0 -5 -4 -9 -8 -9 -5 0 -9 7 -9 15 0 8 4
12 9 9 4 -3 8 -9 8 -15z m590 17 c0 -3 -4 -8 -10 -11 -5 -3 -10 -1 -10 4 0 6
5 11 10 11 6 0 10 -2 10 -4z m2953 -8 c15 0 27 -5 27 -9 0 -5 9 -9 19 -9 11 0
23 -5 27 -12 5 -8 2 -9 -10 -5 -11 4 -15 3 -11 -4 4 -6 14 -8 22 -5 25 10 36
-5 18 -24 -19 -21 -41 -17 -99 17 -38 22 -39 23 -11 18 23 -5 26 -4 15 4 -8 6
-26 11 -40 11 -37 0 -70 11 -70 22 0 6 17 8 43 4 23 -4 54 -7 70 -8z m338 -2
c9 0 16 -6 16 -13 0 -7 -5 -9 -11 -6 -6 4 -23 6 -38 5 -15 -1 -28 2 -28 6 0
15 14 23 29 16 9 -4 23 -7 32 -8z m537 -20 c3 -3 -13 -6 -36 -6 -23 0 -42 4
-42 9 0 9 68 6 78 -3z m-4190 -26 c-15 -24 -22 -19 -13 9 3 12 11 19 16 16 5
-4 3 -14 -3 -25z m3536 14 c5 -14 4 -15 -9 -4 -17 14 -19 20 -6 20 5 0 12 -7
15 -16z m-5463 -21 c-12 -20 -14 -14 -5 12 4 9 9 14 11 11 3 -2 0 -13 -6 -23z
m3123 12 c-7 -17 -20 -20 -28 -6 -4 5 0 12 6 14 23 9 28 7 22 -8z m2903 -7 c1
-11 8 -25 15 -29 10 -7 10 -11 -1 -21 -11 -10 -12 -10 -7 0 4 7 1 15 -7 18 -8
3 -13 15 -12 27 4 35 10 38 12 5z m-5080 -11 c-26 -27 -33 -27 -17 2 6 12 17
21 25 21 10 0 8 -7 -8 -23z m1067 -1 c-3 -8 -12 -12 -21 -9 -12 5 -12 7 -1 14
20 13 28 11 22 -5z m3373 8 c-3 -3 -12 -4 -19 -1 -8 3 -5 6 6 6 11 1 17 -2 13
-5z m-3693 -28 c-6 -16 -24 -23 -24 -8 0 10 22 33 27 28 2 -2 1 -11 -3 -20z
m3794 5 c3 -10 0 -10 -17 -2 -25 14 -27 20 -4 17 9 -2 19 -8 21 -15z m-5025
-11 c-10 -11 -19 -20 -21 -20 -1 0 2 9 8 20 6 11 15 20 20 20 6 0 2 -9 -7 -20z
m3076 -1 c-16 -10 -23 -4 -14 10 3 6 11 8 17 5 6 -4 5 -9 -3 -15z m-1589 1 c0
-5 -2 -10 -4 -10 -3 0 -8 5 -11 10 -3 6 -1 10 4 10 6 0 11 -4 11 -10z m1167
-5 c0 -8 -4 -15 -9 -15 -4 0 -8 7 -8 15 0 8 4 15 8 15 5 0 9 -7 9 -15z m-2087
1 c0 -2 -8 -10 -17 -17 -16 -13 -17 -12 -4 4 13 16 21 21 21 13z m4678 -16
c-7 -10 -14 -17 -17 -15 -4 4 18 35 25 35 2 0 -1 -9 -8 -20z m-5614 -7 c8 -21
-14 -26 -29 -7 -13 18 -14 18 -8 -4 5 -19 2 -22 -18 -18 -13 3 -28 5 -33 5 -5
1 1 10 14 21 25 21 67 23 74 3z m796 9 c0 -15 -11 -21 -27 -15 -12 5 -12 7 -1
14 17 11 28 11 28 1z m5104 -6 c-3 -8 -12 -12 -19 -10 -8 3 -20 -4 -27 -15
-15 -25 -61 -30 -51 -6 3 9 8 14 10 11 3 -3 22 4 41 15 44 23 53 24 46 5z
m-5424 -8 c0 6 6 12 13 12 7 0 13 -15 13 -38 2 -36 0 -38 -22 -34 -16 3 -24
11 -24 24 0 15 -4 18 -17 13 -15 -5 -14 -3 2 13 14 13 22 16 27 8 5 -8 8 -7 8
2z m760 5 c-8 -3 -19 -12 -23 -19 -4 -8 -14 -14 -22 -14 -9 0 -12 -6 -9 -17 5
-14 4 -15 -4 -4 -5 7 -16 10 -23 7 -8 -4 -5 0 5 8 11 9 25 16 32 16 6 0 14 7
18 15 3 8 13 15 23 14 14 0 15 -2 3 -6z m4340 -8 c-7 -8 -17 -15 -23 -15 -6 0
-2 7 9 15 25 19 30 19 14 0z m462 3 c-7 -7 -21 -13 -32 -15 -17 -2 -18 0 -9
10 7 7 21 14 32 14 15 2 17 -1 9 -9z m-2702 -2 c0 -3 -4 -8 -10 -11 -5 -3 -10
-1 -10 4 0 6 5 11 10 11 6 0 10 -2 10 -4z m-2615 -16 c3 -5 -1 -10 -10 -10 -9
0 -13 5 -10 10 3 6 8 10 10 10 2 0 7 -4 10 -10z m680 0 c3 -6 -1 -7 -9 -4 -18
7 -21 14 -7 14 6 0 13 -4 16 -10z m1535 0 c0 -5 -2 -10 -4 -10 -3 0 -8 5 -11
10 -3 6 -1 10 4 10 6 0 11 -4 11 -10z m-2920 -18 c0 -10 41 -9 58 2 9 5 15 1
19 -13 6 -25 5 -25 50 -6 19 8 37 15 39 15 2 0 -11 -16 -29 -35 -17 -19 -36
-35 -41 -35 -5 0 -6 3 -3 7 4 3 -5 14 -21 23 -28 17 -62 16 -62 -3 0 -5 -9 0
-20 13 -24 27 -25 40 -5 40 8 0 15 -4 15 -8z m1590 4 c0 -3 -4 -8 -10 -11 -5
-3 -10 -1 -10 4 0 6 5 11 10 11 6 0 10 -2 10 -4z m-1650 -13 c0 -5 -13 -8 -30
-8 -16 0 -30 3 -30 8 0 4 14 7 30 7 17 0 30 -3 30 -7z m-70 -18 c0 -17 -2 -18
-24 -9 -23 9 -20 24 4 24 11 0 20 -7 20 -15z m1274 -10 c-4 -8 -8 -15 -10 -15
-2 0 -4 7 -4 15 0 8 4 15 10 15 5 0 7 -7 4 -15z m646 -8 c0 -2 -10 -12 -22
-23 l-23 -19 19 23 c18 21 26 27 26 19z m1600 -40 c0 -4 -6 -5 -12 -1 -10 6
-10 5 -1 -7 6 -8 13 -27 16 -44 3 -24 4 -21 6 15 l3 45 14 -50 c17 -63 18 -98
2 -92 -7 2 -13 14 -12 26 0 11 -3 21 -8 21 -4 0 -8 -17 -8 -38 0 -21 -3 -42
-7 -46 -5 -4 -8 -17 -8 -28 0 -11 -10 -27 -22 -35 -15 -10 -23 -11 -23 -4 0 6
3 11 8 11 9 0 7 185 -3 222 -9 34 22 57 43 31 6 -9 12 -21 12 -26z m-126 -22
c5 -36 4 -46 -3 -35 -10 13 -16 99 -7 89 2 -2 6 -26 10 -54z m-2073 36 c-7 -5
-11 -13 -7 -19 7 -11 -12 -28 -20 -19 -9 8 16 47 29 47 8 0 8 -3 -2 -9z m659
-11 c-20 -13 -33 -13 -25 0 3 6 14 10 23 10 15 0 15 -2 2 -10z m-1863 -6 c-3
-3 -12 -4 -19 -1 -8 3 -5 6 6 6 11 1 17 -2 13 -5z m118 -11 c-12 -32 -14 -54
-4 -48 5 4 6 11 3 17 -4 7 -2 8 4 4 21 -13 13 -23 -29 -39 -25 -10 -38 -20
-34 -27 5 -8 -1 -10 -16 -8 -13 2 -23 9 -21 16 1 6 -2 12 -8 12 -5 0 -10 5
-10 11 0 6 8 8 18 5 11 -3 29 8 52 34 38 41 56 50 45 23z m1822 3 c-5 -16 -27
-19 -27 -3 0 7 7 14 15 14 9 0 14 -5 12 -11z m-384 -15 c3 -11 0 -22 -7 -24
-6 -3 -11 6 -11 19 0 29 11 32 18 5z m-1636 -7 c8 -20 -9 -36 -30 -28 -13 5
-14 10 -6 25 12 23 28 25 36 3z m1214 -38 c-12 -13 -19 -30 -16 -38 3 -8 0
-20 -8 -27 -16 -13 -50 -4 -41 10 3 5 10 7 15 4 5 -4 9 -1 9 5 0 6 12 27 26
46 15 19 23 34 20 34 -4 0 -4 6 1 13 5 9 9 7 11 -6 2 -11 -6 -29 -17 -41z
m736 20 c-4 -9 -13 -13 -21 -10 -12 5 -13 9 -3 25 13 21 33 9 24 -15z m-610
-1 c0 -8 -4 -12 -9 -9 -5 3 -6 10 -3 15 9 13 12 11 12 -6z m2076 -52 c-5 -78
-13 -97 -13 -32 0 24 -4 51 -10 59 -5 9 -5 19 2 27 20 25 25 13 21 -54z
m-3073 34 c-14 -13 -34 -26 -45 -31 -16 -6 -17 -9 -5 -16 12 -8 10 -10 -8 -10
-33 0 -24 15 28 49 55 36 62 38 30 8z m850 13 c0 -5 -5 -10 -11 -10 -5 0 -7 5
-4 10 3 6 8 10 11 10 2 0 4 -4 4 -10z m1050 -8 c8 -7 26 -22 40 -33 16 -13 2
-9 -40 12 -79 38 -80 39 -44 36 16 -1 35 -8 44 -15z m-862 -17 c-3 -3 -9 2
-12 12 -6 14 -5 15 5 6 7 -7 10 -15 7 -18z m766 10 c-6 -15 5 -19 36 -15 12 1
12 -1 3 -11 -9 -9 -17 -8 -38 5 -14 9 -23 21 -20 26 10 16 25 11 19 -5z
m-1874 -4 c0 -6 -4 -12 -8 -15 -5 -3 -9 1 -9 9 0 8 4 15 9 15 4 0 8 -4 8 -9z
m381 -14 c-10 -9 -11 -8 -5 6 3 10 9 15 12 12 3 -3 0 -11 -7 -18z m2913 -9 c9
-12 16 -29 15 -38 0 -9 -5 -4 -12 10 -6 14 -18 30 -27 37 -9 8 -11 12 -3 13 6
0 19 -10 27 -22z m-3514 -8 c0 -5 -5 -10 -11 -10 -5 0 -7 5 -4 10 3 6 8 10 11
10 2 0 4 -4 4 -10z m2184 1 c4 -5 -1 -8 -9 -7 -21 3 -31 16 -12 16 9 0 18 -4
21 -9z m-509 -21 c-10 -11 -21 -17 -24 -14 -3 3 3 12 13 20 28 20 32 17 11 -6z
m-1492 0 c-12 -5 -26 -17 -31 -27 -6 -10 -14 -14 -19 -10 -10 11 34 47 56 46
11 0 10 -3 -6 -9z m2845 -16 l-11 -24 -26 22 c-14 13 -27 23 -28 23 -1 0 16 1
37 1 37 1 38 1 28 -22z m99 20 c-3 -3 -12 -4 -19 -1 -8 3 -5 6 6 6 11 1 17 -2
13 -5z m202 -37 c-1 -31 -1 -31 -9 -7 -11 36 -11 52 0 45 6 -3 10 -21 9 -38z
m-2721 18 c-2 -2 -6 -3 -9 -2 -3 1 -13 -4 -22 -12 -20 -16 -23 -6 -5 13 7 7
19 11 26 9 7 -3 12 -7 10 -8z m1004 -4 c2 6 12 0 23 -12 18 -20 18 -22 3 -16
-10 4 -18 2 -18 -3 0 -6 -7 -10 -15 -10 -8 0 -15 5 -15 11 0 5 5 7 12 3 7 -4
8 -3 4 4 -4 7 -14 12 -22 12 -8 0 -14 5 -14 10 0 7 6 7 19 0 14 -7 20 -7 23 1z
m-512 -16 c-7 -8 -17 -15 -22 -15 -11 0 14 29 26 30 5 0 3 -7 -4 -15z m795 5
c3 -5 1 -10 -4 -10 -6 0 -11 5 -11 10 0 6 2 10 4 10 3 0 8 -4 11 -10z m-2005
-4 c0 -3 -4 -8 -10 -11 -5 -3 -10 -1 -10 4 0 6 5 11 10 11 6 0 10 -2 10 -4z
m1250 0 c0 -2 -7 -7 -16 -10 -8 -3 -12 -2 -9 4 6 10 25 14 25 6z m401 -48
c-11 -11 -13 -10 -7 0 4 7 2 21 -5 30 -12 15 -11 15 6 0 16 -15 17 -20 6 -30z
m39 23 c0 -4 -6 -15 -12 -24 -12 -15 -13 -14 -13 12 0 19 4 27 13 24 6 -3 12
-8 12 -12z m1210 5 c0 -11 -19 -15 -25 -6 -3 5 1 10 9 10 9 0 16 -2 16 -4z
m-2880 -20 c0 -15 -37 -32 -47 -23 -7 8 20 36 35 37 6 0 12 -6 12 -14z m1215
-6 c10 -11 16 -20 13 -20 -3 0 -15 9 -28 20 -13 11 -19 20 -13 20 5 0 18 -9
28 -20z m1615 10 c0 -5 -4 -10 -10 -10 -5 0 -10 5 -10 10 0 6 5 10 10 10 6 0
10 -4 10 -10z m-2580 -20 c-11 -7 -12 -10 -2 -10 7 0 10 -4 7 -10 -4 -6 -11
-5 -20 3 -12 10 -11 14 2 24 9 7 19 10 22 7 3 -3 -1 -9 -9 -14z m3197 -2 c-3
-8 -6 -5 -6 6 -1 11 2 17 5 13 3 -3 4 -12 1 -19z m-3367 4 c0 -5 -7 -9 -15 -9
-8 0 -15 4 -15 9 0 4 7 8 15 8 8 0 15 -4 15 -8z m1180 -6 c0 -3 -4 -8 -10 -11
-5 -3 -10 -1 -10 4 0 6 5 11 10 11 6 0 10 -2 10 -4z m-1052 -11 c-3 -3 -16 -8
-28 -10 -13 -3 -27 -10 -32 -17 -6 -10 -8 -10 -8 -1 0 7 8 17 18 22 17 11 60
15 50 6z m1427 -5 c3 -5 1 -10 -4 -10 -6 0 -11 5 -11 10 0 6 2 10 4 10 3 0 8
-4 11 -10z m325 -2 c0 -4 -8 -8 -18 -8 -10 0 -23 -5 -30 -12 -7 -7 -12 -9 -12
-6 0 4 6 13 14 21 15 15 46 19 46 5z m1645 -8 c-3 -5 -10 -10 -16 -10 -5 0 -9
5 -9 10 0 6 7 10 16 10 8 0 12 -4 9 -10z m-3487 -14 c-2 -1 -12 -8 -22 -16
-18 -14 -18 -14 -6 7 8 12 18 19 23 16 4 -3 7 -6 5 -7z m327 5 c3 -5 1 -12 -5
-16 -5 -3 -10 1 -10 9 0 18 6 21 15 7z m1390 -1 c-3 -5 -14 -10 -23 -10 -15 0
-15 2 -2 10 20 13 33 13 25 0z m-49 -18 c0 -23 -32 -23 -33 0 -1 11 5 18 15
18 10 0 18 -8 18 -18z m3614 4 c0 -9 -30 -14 -35 -6 -4 6 3 10 14 10 12 0 21
-2 21 -4z m-4180 -27 c0 -6 -4 -7 -10 -4 -5 3 -10 11 -10 16 0 6 5 7 10 4 6
-3 10 -11 10 -16z m488 1 c-7 -11 -14 -17 -16 -15 -2 2 -15 0 -28 -5 -16 -6
-24 -6 -24 1 0 6 9 13 20 16 11 3 20 8 20 12 0 4 9 7 20 8 17 1 18 -1 8 -17z
m872 17 c0 -2 -10 -12 -22 -23 l-23 -19 19 23 c18 21 26 27 26 19z m50 -9 c0
-4 -7 -8 -15 -8 -8 0 -15 4 -15 8 0 5 7 9 15 9 8 0 15 -4 15 -9z m484 -1 c3 3
6 1 6 -6 0 -7 5 -9 10 -6 6 4 9 1 8 -6 -2 -7 4 -13 12 -14 8 0 26 -6 40 -12
14 -6 36 -15 50 -21 24 -9 24 -10 -15 -20 -74 -19 -165 -39 -165 -36 0 1 -3
10 -7 20 -5 13 -3 15 8 9 12 -8 12 -6 0 9 -11 13 -11 16 -1 14 7 -2 15 3 17
10 4 9 -2 11 -21 6 -20 -5 -26 -2 -26 9 0 9 4 19 10 22 6 4 7 -1 3 -12 -6 -17
-5 -17 13 -2 10 9 26 14 34 11 11 -3 9 2 -5 18 l-20 23 21 -11 c12 -6 24 -8
28 -5z m-2664 -6 c0 -5 -7 -12 -16 -15 -24 -9 -28 -7 -14 9 14 17 30 20 30 6z
m-420 -26 c-7 -9 -15 -13 -18 -10 -3 2 1 11 8 20 7 9 15 13 18 10 3 -2 -1 -11
-8 -20z m346 -52 c-3 -4 -6 -1 -6 5 0 7 -7 12 -16 12 -8 0 -13 4 -9 9 3 5 1
12 -5 16 -5 3 -10 11 -10 16 0 6 12 -4 26 -21 15 -17 24 -34 20 -37z m2484 34
c0 -5 -4 -5 -10 -2 -5 3 -10 14 -10 23 0 15 2 15 10 2 5 -8 10 -19 10 -23z
m-174 -14 c-10 -10 -19 5 -10 18 6 11 8 11 12 0 2 -7 1 -15 -2 -18z m-1486
-19 c0 -13 6 -24 13 -24 6 -1 -12 -12 -40 -26 -32 -15 -53 -32 -54 -42 0 -11
-2 -12 -6 -4 -2 6 -10 9 -16 5 -7 -4 4 10 24 30 20 21 39 51 43 67 7 36 36 31
36 -6z m480 -6 c0 -7 -11 -14 -25 -14 -28 -2 -34 12 -7 19 29 8 32 7 32 -5z
m1104 3 c3 -5 0 -11 -7 -14 -8 -3 -14 1 -14 9 0 16 13 19 21 5z m-2361 -19
c-10 -10 -20 -17 -22 -16 -6 5 20 34 30 34 5 0 1 -8 -8 -18z m5258 -9 c-12
-20 -14 -14 -5 12 4 9 9 14 11 11 3 -2 0 -13 -6 -23z m-5181 14 c0 -2 -8 -11
-18 -20 -15 -14 -19 -15 -19 -2 0 8 4 12 8 9 4 -2 10 0 14 6 6 10 15 14 15 7z
m2203 -23 c-3 -8 -12 -13 -19 -10 -8 3 -14 1 -14 -4 0 -6 11 -10 25 -10 14 0
25 -4 25 -10 0 -5 -3 -9 -7 -9 -19 3 -31 -2 -37 -16 -6 -15 17 -17 41 -2 6 4
15 2 19 -5 4 -6 2 -14 -5 -16 -8 -3 -7 -8 5 -17 15 -10 12 -11 -16 -7 -25 3
-31 1 -28 -9 3 -9 17 -13 37 -11 36 3 40 -5 9 -18 l-23 -9 22 -6 c22 -7 24
-26 9 -72 -5 -15 -3 -23 4 -23 6 0 8 5 5 10 -3 6 -1 10 5 10 7 0 9 -7 6 -16
-3 -9 -6 -20 -6 -25 0 -6 -5 -7 -10 -4 -6 4 -19 1 -28 -6 -15 -12 -15 -12 1 7
9 11 14 23 11 27 -11 11 -10 52 1 59 5 4 0 8 -12 8 -12 0 -28 -9 -36 -20 -13
-18 -15 -19 -21 -5 -8 23 11 56 29 49 8 -4 15 -1 15 4 0 6 -9 13 -19 17 -22 7
-35 32 -20 40 5 4 6 12 2 18 -8 13 -10 19 -12 43 -1 10 -7 14 -16 10 -24 -9
-17 10 10 28 15 10 25 12 25 6 0 -6 5 -8 10 -5 6 4 7 11 4 17 -4 7 -2 8 4 4 6
-4 8 -14 5 -22z m56 -4 c11 -24 11 -24 -3 -6 -9 11 -16 24 -16 30 0 12 5 7 19
-24z m-2382 -2 c-3 -8 -6 -5 -6 6 -1 11 2 17 5 13 3 -3 4 -12 1 -19z m2878 12
c-3 -5 -12 -7 -20 -3 -21 7 -19 13 6 13 11 0 18 -4 14 -10z m-2815 -19 c-5
-11 -15 -23 -22 -27 -6 -4 -8 -3 -4 4 3 6 -2 13 -11 15 -14 4 -13 5 4 6 12 0
25 6 28 11 11 18 16 10 5 -9z m3294 -1 c4 1 12 -1 19 -4 9 -5 9 -7 0 -12 -7
-3 -13 -10 -13 -15 0 -6 8 -5 20 1 12 6 27 7 35 2 13 -6 9 -13 -17 -37 -18
-17 -26 -22 -19 -12 12 15 12 17 -1 12 -9 -4 -18 0 -21 9 -4 10 -17 13 -49 10
-37 -4 -45 -1 -57 18 -7 13 -10 20 -6 16 5 -4 15 -2 23 5 13 10 15 9 9 -5 -7
-20 17 -25 29 -6 5 7 3 8 -6 3 -8 -5 -11 -3 -8 6 3 8 13 13 22 13 9 -1 16 3
16 10 0 7 4 6 9 -2 4 -8 11 -13 15 -12z m-3400 -4 c-10 -8 -21 -12 -24 -10 -5
6 21 24 34 24 6 0 1 -6 -10 -14z m2912 -3 c-3 -3 4 -15 15 -26 14 -15 16 -23
7 -28 -7 -4 -16 -5 -21 -2 -5 3 -14 -1 -19 -8 -8 -12 -9 -11 -6 1 3 8 -9 27
-26 42 -31 29 -29 36 5 17 11 -5 16 -15 13 -21 -4 -6 -3 -8 4 -4 6 3 9 15 7
26 -3 13 1 17 11 13 8 -3 13 -8 10 -10z m55 -18 c7 0 14 -6 17 -12 2 -7 -2
-13 -9 -13 -18 0 -49 31 -49 48 0 12 3 11 14 -4 8 -10 20 -19 27 -19z m-1 14
c0 -6 -4 -7 -10 -4 -5 3 -10 11 -10 16 0 6 5 7 10 4 6 -3 10 -11 10 -16z
m-173 -11 c-3 -8 -6 -5 -6 6 -1 11 2 17 5 13 3 -3 4 -12 1 -19z m-1186 -40
c-10 -23 -13 -17 -13 22 0 33 2 36 12 18 6 -10 7 -25 1 -40z m1134 32 c10 -11
15 -20 11 -20 -4 0 -16 9 -28 20 -12 11 -17 20 -11 20 5 0 18 -9 28 -20z
m-2035 -17 l-24 -17 21 -6 c26 -6 18 -26 -12 -32 -16 -2 -19 2 -17 22 3 25 26
50 46 50 6 0 -1 -8 -14 -17z m1730 -8 c7 -14 11 -28 7 -31 -3 -3 -13 8 -22 25
-8 17 -12 31 -7 31 5 0 15 -11 22 -25z m-1565 5 c-3 -5 -12 -10 -18 -10 -7 0
-6 4 3 10 19 12 23 12 15 0z m666 -23 c-16 -16 -25 -1 -10 16 8 8 16 11 18 5
2 -5 -2 -15 -8 -21z m129 23 c0 -5 -2 -10 -4 -10 -3 0 -8 5 -11 10 -3 6 -1 10
4 10 6 0 11 -4 11 -10z m1180 0 c0 -5 -8 -10 -17 -10 -15 0 -16 2 -3 10 19 12
20 12 20 0z m-105 -20 c3 -5 1 -10 -4 -10 -6 0 -11 5 -11 10 0 6 2 10 4 10 3
0 8 -4 11 -10z m251 -26 c1 -14 -4 -24 -12 -24 -14 0 -18 12 -15 39 2 8 -2 10
-10 5 -7 -4 -10 -3 -6 4 12 18 42 2 43 -24z m124 21 c10 -13 9 -15 -11 -14
-13 0 -18 3 -11 6 6 2 10 9 6 14 -9 15 2 10 16 -6z m-1170 1 c0 -3 -4 -8 -10
-11 -5 -3 -10 -1 -10 4 0 6 5 11 10 11 6 0 10 -2 10 -4z m836 -63 c4 -37 3
-53 -5 -53 -6 0 -11 12 -11 26 0 14 -4 23 -9 20 -5 -3 -11 1 -14 9 -4 10 -1
12 10 8 13 -5 14 0 8 28 -5 24 -4 31 3 24 6 -5 14 -34 18 -62z m284 47 c0 -5
-4 -10 -10 -10 -5 0 -10 5 -10 10 0 6 5 10 10 10 6 0 10 -4 10 -10z m-1496 -6
c9 -3 13 -11 10 -16 -4 -6 -10 -5 -15 3 -5 8 -6 -1 -2 -23 4 -30 2 -38 -10
-38 -11 0 -15 9 -15 33 1 47 5 51 32 41z m-1384 -8 c0 -7 -40 -14 -44 -7 -3 4
6 8 20 9 13 1 24 0 24 -2z m786 -14 c-3 -5 -16 -12 -28 -15 -22 -6 -22 -6 2
13 25 19 37 20 26 2z m710 -7 c1 -14 -2 -25 -8 -25 -5 0 -7 4 -4 9 3 5 -2 12
-11 15 -15 6 -15 8 -3 16 22 14 25 12 26 -15z m-292 -17 c-3 -4 -17 -8 -32 -8
-23 1 -25 2 -9 11 9 6 15 15 11 20 -3 6 3 5 14 -2 12 -7 18 -17 16 -21z m-594
18 c0 -3 -4 -8 -10 -11 -5 -3 -10 -1 -10 4 0 6 5 11 10 11 6 0 10 -2 10 -4z
m3285 -6 c3 -5 1 -10 -4 -10 -6 0 -11 5 -11 10 0 6 2 10 4 10 3 0 8 -4 11 -10z
m-1190 -10 c7 -12 -18 -40 -35 -40 -17 0 -40 -26 -40 -44 0 -9 -8 -16 -17 -16
-15 0 -15 2 -4 9 8 5 11 16 8 25 -4 10 -1 19 8 22 8 4 13 10 10 14 -3 5 -1 11
5 15 5 3 10 1 10 -4 0 -6 5 -11 11 -11 6 0 9 6 6 14 -8 21 26 35 38 16z m335
1 c0 -6 -4 -13 -10 -16 -5 -3 -10 1 -10 9 0 9 5 16 10 16 6 0 10 -4 10 -9z
m830 -4 c0 -5 -7 -7 -14 -4 -10 4 -13 1 -9 -8 3 -8 9 -12 14 -9 5 3 9 -2 9
-10 0 -11 -8 -15 -30 -12 -41 5 -47 12 -26 35 18 20 56 25 56 8z m-3980 -7
c12 -8 11 -10 -7 -10 -13 0 -23 5 -23 10 0 13 11 13 30 0z m40 -22 c0 -23 -3
-29 -9 -19 -8 12 -4 51 5 51 2 0 4 -15 4 -32z m640 -20 c0 -9 -4 -19 -10 -23
-5 -3 -7 -11 -5 -18 5 -15 -23 -50 -47 -60 -20 -7 -23 0 -8 23 9 13 10 13 10
0 0 -11 4 -9 12 5 6 11 14 22 17 25 10 8 8 65 -2 71 -5 4 -6 12 -2 18 9 15 34
-15 35 -41z m15 43 c3 -5 1 -12 -5 -16 -5 -3 -10 1 -10 9 0 18 6 21 15 7z
m875 -1 c0 -5 -5 -10 -11 -10 -5 0 -7 5 -4 10 3 6 8 10 11 10 2 0 4 -4 4 -10z
m3933 -21 c10 -11 30 -19 45 -19 16 0 32 -8 40 -20 7 -11 8 -20 3 -20 -5 0
-12 7 -15 16 -3 8 -10 13 -14 10 -5 -3 -26 3 -46 14 -21 10 -51 22 -67 25 -43
10 -43 21 -1 17 20 -3 45 -13 55 -23z m-4759 9 c-5 -8 -2 -9 9 -5 21 8 22 0 2
-19 -8 -9 -15 -13 -15 -9 0 3 -5 3 -11 0 -6 -5 -4 -12 8 -20 10 -7 15 -17 10
-21 -4 -4 -7 -1 -7 7 0 12 -2 11 -10 -1 -9 -13 -11 -13 -19 0 -5 8 -7 18 -4
23 3 5 -1 14 -8 19 -11 8 -10 9 3 4 11 -3 22 2 28 14 6 11 13 20 16 20 3 0 2
-5 -2 -12z m2555 -55 c1 -77 -7 -80 -14 -4 -4 47 -1 71 9 71 2 0 4 -30 5 -67z
m707 42 c-9 -9 -16 -13 -16 -8 0 12 22 34 28 28 2 -2 -3 -11 -12 -20z m-2406
5 c0 -5 -8 -10 -17 -10 -15 0 -16 2 -3 10 19 12 20 12 20 0z m871 -23 c-6 -6
-11 -18 -11 -26 0 -13 2 -14 9 -2 5 7 14 10 20 7 6 -4 11 -2 11 3 0 6 4 11 9
11 6 0 4 -12 -4 -27 -12 -22 -22 -27 -57 -29 -37 -2 -40 0 -20 9 12 6 22 17
20 26 -3 19 25 66 31 50 2 -6 -2 -16 -8 -22z m-1610 10 c-6 -8 -9 -16 -6 -19
3 -2 -2 -5 -10 -5 -8 0 -15 4 -15 9 0 4 5 8 11 8 5 0 7 5 4 10 -3 6 1 10 11
10 13 0 14 -3 5 -13z m1800 -8 c8 -17 8 -20 -2 -17 -7 2 -13 12 -15 21 -3 23
3 21 17 -4z m-2735 -9 c0 -11 -4 -20 -8 -20 -4 0 -8 9 -8 20 0 11 4 20 8 20 4
0 8 -9 8 -20z m194 5 c0 -8 -4 -15 -10 -15 -5 0 -7 7 -4 15 4 8 8 15 10 15 2
0 4 -7 4 -15z m515 -20 c0 -14 -6 -27 -14 -30 -9 -4 -12 1 -8 15 3 11 2 20 -3
20 -13 0 -30 -26 -22 -35 4 -5 2 -5 -5 -1 -7 4 -24 -1 -38 -10 -14 -9 -25 -13
-25 -9 0 13 50 55 66 55 8 0 17 6 20 14 9 22 29 9 29 -19z m907 13 c-7 -7 -12
-8 -12 -2 0 14 12 26 19 19 2 -3 -1 -11 -7 -17z m-65 6 c-3 -3 -12 -4 -19 -1
-8 3 -5 6 6 6 11 1 17 -2 13 -5z m823 -4 c0 -5 -4 -10 -10 -10 -5 0 -10 5 -10
10 0 6 5 10 10 10 6 0 10 -4 10 -10z m1562 -12 c-9 -9 -15 -9 -24 1 -9 10 -9
12 -1 7 6 -3 15 -1 18 5 4 5 10 8 13 4 3 -3 0 -11 -6 -17z m-1645 -10 c-3 -8
-6 -5 -6 6 -1 11 2 17 5 13 3 -3 4 -12 1 -19z m728 -4 c14 -9 22 -21 18 -27
-3 -6 -1 -7 5 -3 7 4 19 3 28 -2 14 -8 14 -11 3 -18 -8 -5 -18 -9 -24 -9 -5 0
-9 -8 -7 -18 2 -9 -3 -18 -10 -18 -7 -1 -20 -3 -28 -4 -8 0 -23 -5 -33 -9 -11
-6 -23 -4 -30 3 -7 7 -7 12 -2 11 24 -5 33 1 28 20 -3 11 -10 20 -17 20 -6 0
-17 9 -24 20 -15 24 -9 25 24 4 13 -9 28 -14 32 -10 3 4 0 11 -7 15 -10 7 -8
11 9 16 18 6 20 9 9 16 -8 5 -10 9 -6 9 4 0 19 -7 32 -16z m1398 -22 c-22 -5
-27 5 -12 21 12 13 15 13 20 -2 4 -10 1 -17 -8 -19z m-3548 18 c-3 -5 0 -10 7
-10 7 0 4 -9 -9 -22 -13 -12 -26 -19 -30 -14 -4 4 -1 11 6 15 7 5 11 13 7 19
-3 6 0 13 6 15 19 8 20 8 13 -3z m5010 1 c3 -5 0 -13 -6 -17 -7 -4 -9 -3 -5 4
3 6 -3 12 -16 15 -23 4 -23 4 -1 6 12 0 24 -3 28 -8z m-5992 -31 c-6 -22 -20
-25 -43 -9 -13 9 -12 10 2 5 11 -3 19 2 23 15 8 25 25 15 18 -11z m3291 14 c5
-14 4 -15 -8 -5 -8 7 -20 10 -26 6 -5 -3 -10 -1 -10 4 0 17 37 13 44 -5z
m1129 9 c-7 -2 -19 -2 -25 0 -7 3 -2 5 12 5 14 0 19 -2 13 -5z m57 -8 c0 -8 5
-15 12 -15 6 0 8 -3 5 -6 -8 -8 -37 14 -37 27 0 5 5 9 10 9 6 0 10 -7 10 -15z
m-2876 -11 c-4 9 4 13 25 12 24 -1 31 -6 31 -21 0 -17 -2 -17 -10 -5 -9 14
-15 7 -11 -14 1 -5 -5 -6 -13 -3 -12 5 -15 0 -13 -21 2 -15 7 -34 12 -42 5 -8
-2 -6 -15 5 -16 14 -24 16 -27 8 -6 -16 -63 -17 -63 -2 0 5 3 8 8 6 13 -8 52
12 52 28 0 8 -4 15 -9 15 -5 0 -8 11 -8 25 0 25 0 25 23 10 18 -12 22 -12 18
-1z m986 -7 c0 -6 -3 -7 -7 -4 -3 4 -12 2 -20 -4 -9 -9 -13 -8 -13 0 0 6 5 11
11 11 5 0 7 4 4 10 -3 6 1 7 9 4 9 -3 16 -11 16 -17z m-2558 -5 c-7 -2 -12
-12 -12 -22 0 -23 -17 -35 -23 -18 -5 17 25 58 38 50 5 -3 4 -7 -3 -10z m838
3 c-8 -9 -9 -15 -2 -15 6 0 14 5 17 10 10 17 36 11 61 -12 29 -28 30 -38 5
-31 -10 3 -29 0 -41 -7 -32 -17 -35 -6 -5 24 29 29 21 33 -21 11 -26 -13 -29
-13 -32 1 -2 9 2 20 10 25 19 13 22 11 8 -6z m1610 5 c0 -5 -2 -10 -4 -10 -3
0 -8 5 -11 10 -3 6 -1 10 4 10 6 0 11 -4 11 -10z m-2550 -8 c0 -5 -12 -14 -27
-21 l-28 -11 24 20 c26 22 31 24 31 12z m1813 -7 c-3 -9 -8 -14 -10 -11 -3 3
-2 9 2 15 9 16 15 13 8 -4z m-228 -5 c-3 -5 -1 -10 4 -10 6 0 11 -7 11 -15 0
-20 -16 -19 -24 1 -6 15 0 34 10 34 3 0 2 -4 -1 -10z m-979 -13 c-10 -7 -16
-21 -14 -31 1 -11 -3 -21 -11 -24 -9 -3 -11 0 -6 8 6 10 4 12 -8 7 -12 -4 -14
-2 -10 11 7 22 33 42 52 42 12 0 11 -3 -3 -13z m1910 -3 c-3 -9 -6 -20 -6 -25
0 -15 -17 -10 -24 7 -8 20 1 34 21 34 10 0 13 -6 9 -16z m137 9 c-7 -2 -13
-12 -13 -20 0 -9 -3 -14 -6 -10 -10 10 4 37 18 36 10 0 10 -2 1 -6z m-42 -20
c12 -15 12 -16 -3 -10 -11 4 -18 2 -18 -5 0 -6 -3 -9 -6 -5 -6 6 2 37 9 37 3
0 11 -8 18 -17z m-2683 -13 c-7 -11 -19 -20 -26 -20 -9 0 -12 -6 -7 -17 5 -14
3 -15 -6 -6 -20 20 4 51 49 62 1 1 -3 -8 -10 -19z m79 14 c-3 -3 -12 -4 -19
-1 -8 3 -5 6 6 6 11 1 17 -2 13 -5z m2718 -13 c3 -5 2 -12 -3 -15 -5 -3 -9 1
-9 9 0 17 3 19 12 6z m260 -1 c-27 -12 -43 -12 -25 0 8 5 22 9 30 9 10 0 8 -3
-5 -9z m-2325 -4 c0 -3 -4 -8 -10 -11 -5 -3 -10 -1 -10 4 0 6 5 11 10 11 6 0
10 -2 10 -4z m350 -15 c-14 -27 -23 -31 -40 -20 -12 7 -11 10 7 15 13 4 20 10
17 15 -3 5 2 9 11 9 12 0 14 -4 5 -19z m534 10 c3 -5 -2 -15 -12 -22 -15 -13
-16 -12 -4 3 10 13 10 17 0 21 -9 4 -9 6 -1 6 6 1 14 -3 17 -8z m943 -11 c3
-11 13 -20 22 -20 14 0 14 -2 1 -10 -9 -5 -16 -6 -18 0 -2 5 -10 6 -18 3 -10
-4 -13 2 -12 21 3 31 18 34 25 6z m173 5 c-7 -9 -15 -13 -19 -10 -3 3 1 10 9
15 21 14 24 12 10 -5z m277 -22 c-3 -10 -5 -4 -5 12 0 17 2 24 5 18 2 -7 2
-21 0 -30z m162 13 c17 -18 19 -26 10 -31 -7 -5 -10 -4 -6 1 3 6 -2 15 -12 21
-16 10 -18 8 -15 -13 1 -13 -2 -24 -7 -24 -10 0 -12 31 -3 54 8 20 6 20 33 -8z
m-109 0 c0 -3 -4 -8 -10 -11 -5 -3 -10 -1 -10 4 0 6 5 11 10 11 6 0 10 -2 10
-4z m214 -22 c4 -10 1 -14 -6 -12 -15 5 -23 28 -10 28 5 0 13 -7 16 -16z
m-1603 -17 c-10 -9 -11 -8 -5 6 3 10 9 15 12 12 3 -3 0 -11 -7 -18z m1939 13
c0 -5 -5 -10 -11 -10 -5 0 -7 5 -4 10 3 6 8 10 11 10 2 0 4 -4 4 -10z m-2925
-17 c-19 -13 -31 -11 -21 5 3 5 13 9 22 9 15 0 15 -2 -1 -14z m100 7 c-3 -5
-11 -10 -16 -10 -6 0 -7 5 -4 10 3 6 11 10 16 10 6 0 7 -4 4 -10z m971 -8 c0
-11 -8 -19 -19 -19 -18 -2 -18 -1 -2 18 22 23 21 23 21 1z m904 -19 c0 -19
-13 -9 -16 12 -1 8 2 13 7 9 5 -3 9 -12 9 -21z m-1754 2 c-11 -8 -22 -12 -25
-9 -6 6 19 24 34 24 6 -1 1 -7 -9 -15z m1238 -8 c4 4 4 0 1 -9 -8 -20 -35 -12
-35 9 0 12 3 13 13 4 8 -6 17 -8 21 -4z m1121 3 c-3 -5 -2 -10 3 -10 9 0 7
-54 -3 -70 -6 -10 -45 -20 -43 -11 0 3 0 19 -1 35 -1 22 -4 26 -14 18 -9 -8
-17 -8 -27 0 -13 8 -12 9 1 5 9 -3 22 0 29 6 10 9 14 9 17 0 8 -22 23 -14 23
12 0 14 5 25 11 25 5 0 7 -4 4 -10z m-3221 -15 c-4 -8 -11 -15 -16 -15 -6 0
-5 6 2 15 7 8 14 15 16 15 2 0 1 -7 -2 -15z m634 3 c-2 -6 -12 -12 -23 -14
-10 -1 -22 -9 -26 -16 -6 -9 -9 -7 -9 9 0 20 7 24 53 32 5 0 7 -4 5 -11z m992
2 c0 -5 -6 -10 -12 -11 -10 0 -10 -2 0 -6 6 -2 12 -9 12 -14 0 -4 -7 -6 -15
-3 -8 4 -17 -1 -21 -10 -10 -27 -21 -18 -16 15 3 19 8 26 12 19 5 -8 9 -7 13
4 7 18 27 22 27 6z m157 3 c-15 -4 -16 -7 -5 -21 12 -15 11 -16 -4 -3 -20 15
-15 32 10 30 15 -1 15 -2 -1 -6z m1373 -3 c0 -5 -7 -7 -15 -4 -8 4 -15 8 -15
10 0 2 7 4 15 4 8 0 15 -4 15 -10z m1057 -12 c-3 -8 -6 -5 -6 6 -1 11 2 17 5
13 3 -3 4 -12 1 -19z m-1265 -39 c-8 -44 -8 -44 -13 -11 -3 17 -2 32 3 32 4 0
8 8 8 17 0 9 2 14 5 12 2 -3 1 -25 -3 -50z m-1248 20 c-3 -5 -14 -9 -26 -9
-17 0 -18 3 -8 14 12 15 44 10 34 -5z m870 6 c-6 -16 -24 -21 -24 -7 0 11 11
22 21 22 5 0 6 -7 3 -15z m306 -5 c0 -5 -9 -10 -21 -10 -11 0 -17 5 -14 10 3
6 13 10 21 10 8 0 14 -4 14 -10z m-3020 -4 c0 -3 -4 -8 -10 -11 -5 -3 -10 -1
-10 4 0 6 5 11 10 11 6 0 10 -2 10 -4z m650 -6 c-20 -13 -33 -13 -25 0 3 6 14
10 23 10 15 0 15 -2 2 -10z m927 -24 c-25 -38 -35 -41 -16 -4 10 19 27 37 36
38 1 0 -8 -15 -20 -34z m1103 17 c0 -5 -5 -15 -10 -23 -8 -12 -10 -11 -10 8 0
12 5 22 10 22 6 0 10 -3 10 -7z m3418 -2 c11 -7 10 -9 -3 -14 -9 -4 -14 -3
-10 2 3 5 -1 12 -7 14 -7 3 -8 6 -3 6 6 0 16 -3 23 -8z m-4271 -16 c0 -8 -4
-12 -9 -9 -4 3 -8 9 -8 15 0 5 4 9 8 9 5 0 9 -7 9 -15z m1370 9 c-3 -3 -12 -4
-19 -1 -8 3 -5 6 6 6 11 1 17 -2 13 -5z m-2597 -19 c-6 -8 -21 -17 -32 -21
-13 -4 -18 -12 -15 -25 3 -10 -2 -24 -12 -31 -14 -11 -14 -11 -3 4 15 18 0 34
-20 22 -7 -4 -5 2 5 13 15 18 71 52 86 53 2 0 -2 -7 -9 -15z m1120 -28 c0 -11
-1 -18 -3 -16 -1 2 -10 14 -21 26 -17 21 -17 21 3 16 13 -3 21 -13 21 -26z
m4350 24 c0 -10 -48 -12 -54 -2 -3 4 9 8 25 9 16 1 29 -2 29 -7z m-3043 -16
c0 -8 -4 -15 -9 -15 -10 0 -11 14 -1 23 9 10 10 9 10 -8z m3090 9 c-3 -3 -12
-4 -19 -1 -8 3 -5 6 6 6 11 1 17 -2 13 -5z m-3443 -29 c-20 -30 -19 -30 -21
-6 -1 11 6 22 15 24 9 3 18 5 20 6 1 0 -5 -10 -14 -24z m-2299 5 c-3 -5 -12
-10 -18 -10 -7 0 -6 4 3 10 19 12 23 12 15 0z m72 4 c-3 -3 -12 -4 -19 -1 -8
3 -5 6 6 6 11 1 17 -2 13 -5z m786 -14 c-3 -11 0 -20 6 -20 6 0 11 -5 11 -12
0 -8 -6 -6 -16 4 -9 9 -14 24 -11 32 9 23 16 20 10 -4z m1544 1 c0 -11 -5 -17
-9 -15 -11 7 -10 34 1 34 6 0 9 -9 8 -19z m1468 -1 c10 -11 16 -20 13 -20 -3
0 -13 9 -23 20 -10 11 -16 20 -13 20 3 0 13 -9 23 -20z m-1151 -5 c3 -8 1 -15
-4 -15 -6 0 -10 7 -10 15 0 8 2 15 4 15 2 0 6 -7 10 -15z m196 -6 c0 -6 -4 -7
-10 -4 -5 3 -10 11 -10 16 0 6 5 7 10 4 6 -3 10 -11 10 -16z m-2953 -22 c1
-18 -3 -27 -12 -27 -11 0 -12 6 -5 24 6 16 5 26 -1 30 -5 2 -4 3 3 2 7 -1 14
-15 15 -29z m3003 17 c0 -2 -9 -4 -21 -4 -11 0 -18 4 -14 10 5 8 35 3 35 -6z
m630 -4 c-8 -5 -19 -10 -25 -10 -5 0 -3 5 5 10 8 5 20 10 25 10 6 0 3 -5 -5
-10z m532 -7 c-5 -10 -12 -25 -15 -33 -2 -8 -5 0 -4 18 0 20 5 32 14 32 10 0
11 -5 5 -17z m833 -12 c-3 -5 1 -16 9 -24 8 -8 12 -17 9 -21 -10 -10 -23 -7
-23 6 0 6 -7 20 -17 30 -15 17 -15 18 6 18 12 0 20 -4 16 -9z m-3271 -17 c3
-8 2 -12 -4 -9 -6 3 -10 10 -10 16 0 14 7 11 14 -7z m-841 -13 c3 -13 1 -18
-9 -14 -7 2 -10 11 -7 19 7 19 10 18 16 -5z m1471 6 c-5 -14 -34 -19 -34 -7 0
11 12 20 26 20 8 0 11 -6 8 -13z m86 -2 c-7 -9 -15 -13 -17 -11 -7 7 7 26 19
26 6 0 6 -6 -2 -15z m1640 11 c0 -3 -4 -8 -10 -11 -5 -3 -10 -1 -10 4 0 6 5
11 10 11 6 0 10 -2 10 -4z m-4020 -10 c0 -3 -4 -8 -10 -11 -5 -3 -10 -1 -10 4
0 6 5 11 10 11 6 0 10 -2 10 -4z m25 -17 c-10 -15 -25 -10 -19 6 4 8 10 12 15
9 5 -3 7 -10 4 -15z m1402 -1 c-3 -8 -6 -5 -6 6 -1 11 2 17 5 13 3 -3 4 -12 1
-19z m100 6 c-3 -3 -12 -4 -19 -1 -8 3 -5 6 6 6 11 1 17 -2 13 -5z"/>
<path d="M2620 1829 c0 -5 5 -7 10 -4 6 3 10 8 10 11 0 2 -4 4 -10 4 -5 0 -10
-5 -10 -11z"/>
<path d="M5390 1460 c6 -11 12 -20 14 -20 2 0 2 9 -1 20 -3 11 -9 20 -15 20
-5 0 -4 -9 2 -20z"/>
<path d="M5473 1379 c-2 -20 -1 -20 16 -5 10 9 21 13 26 9 4 -5 5 -2 1 5 -12
20 -42 14 -43 -9z"/>
<path d="M3541 1043 c0 -5 4 -17 9 -28 8 -17 8 -16 7 8 -1 15 -5 27 -9 27 -4
0 -8 -3 -7 -7z"/>
<path d="M3405 389 c4 -6 0 -16 -10 -23 -15 -11 -14 -13 6 -31 l22 -20 -5 23
c-4 12 -2 22 2 22 4 0 6 9 3 20 -3 11 -10 20 -15 20 -5 0 -6 -5 -3 -11z"/>
<path d="M3373 165 c0 -8 4 -15 9 -15 4 0 8 4 8 9 0 6 -4 12 -8 15 -5 3 -9 -1
-9 -9z"/>
<path d="M5145 2149 c-6 -9 -1 -10 19 -5 15 4 26 2 26 -3 0 -6 7 -8 15 -5 8 4
15 1 15 -5 0 -16 46 -13 60 4 8 9 8 15 2 15 -6 0 -12 -6 -15 -12 -3 -10 -9
-10 -24 -1 -33 19 -90 26 -98 12z"/>
<path d="M5350 2110 c0 -5 4 -10 9 -10 6 0 13 5 16 10 3 6 -1 10 -9 10 -9 0
-16 -4 -16 -10z"/>
<path d="M5390 2111 c0 -5 6 -14 13 -20 10 -8 14 -7 14 4 0 8 -6 16 -14 19 -7
3 -13 2 -13 -3z"/>
<path d="M5486 2069 c4 -7 44 0 44 7 0 2 -11 3 -24 2 -14 -1 -23 -5 -20 -9z"/>
<path d="M5565 2050 c3 -5 8 -10 11 -10 2 0 4 5 4 10 0 6 -5 10 -11 10 -5 0
-7 -4 -4 -10z"/>
<path d="M5620 2051 c-28 -5 -31 -8 -17 -14 11 -4 30 -1 45 8 29 15 26 16 -28
6z"/>
<path d="M5697 2024 c6 -15 23 -19 23 -5 0 5 -7 11 -14 14 -10 4 -13 1 -9 -9z"/>
<path d="M5736 2031 c-3 -5 3 -11 15 -14 16 -4 18 -3 8 9 -13 16 -16 17 -23 5z"/>
<path d="M5813 2001 c-10 -17 -8 -19 25 -25 53 -8 64 -7 57 5 -4 6 -13 8 -21
5 -21 -8 -43 4 -37 20 8 21 -10 17 -24 -5z"/>
<path d="M3000 1979 c-14 -6 -46 -9 -72 -7 -25 2 -44 0 -41 -4 2 -5 22 -8 44
-8 38 0 52 -13 27 -23 -8 -4 -7 -6 3 -6 9 -1 19 5 22 12 6 16 67 21 67 6 0 -5
-12 -9 -27 -10 -25 -1 -24 -2 10 -13 21 -6 42 -18 47 -26 5 -8 23 -15 40 -15
28 0 30 2 24 29 -3 16 -2 31 4 35 6 4 4 11 -4 19 -12 11 -14 10 -15 -5 -1 -10
-1 -24 0 -30 2 -15 -8 -16 -29 -3 -13 9 -13 10 0 10 12 1 11 3 -3 11 -9 5 -21
7 -27 4 -5 -3 -14 4 -20 15 -12 22 -15 23 -50 9z"/>
<path d="M2357 1973 c-15 -14 -6 -30 16 -28 31 3 31 3 17 20 -14 16 -23 19
-33 8z"/>
<path d="M5950 1961 c0 -5 5 -13 10 -16 6 -3 10 -2 10 4 0 5 -4 13 -10 16 -5
3 -10 2 -10 -4z"/>
<path d="M6030 1941 c0 -5 7 -12 16 -15 14 -5 15 -4 4 9 -14 17 -20 19 -20 6z"/>
<path d="M6075 1930 c3 -5 11 -10 16 -10 6 0 7 5 4 10 -3 6 -11 10 -16 10 -6
0 -7 -4 -4 -10z"/>
<path d="M2895 1920 c-19 -8 -19 -9 3 -9 12 -1 22 4 22 9 0 6 -1 10 -2 9 -2 0
-12 -4 -23 -9z"/>
<path d="M2950 1900 c-22 -22 -22 -25 -11 -55 8 -20 8 -20 15 2 4 11 18 24 31
27 14 4 25 14 26 24 0 11 2 13 6 4 3 -7 -5 -25 -18 -39 l-24 -26 23 12 c19 10
28 9 50 -5 26 -17 27 -17 12 1 -13 17 -13 18 1 13 9 -3 22 -2 30 2 23 15 -16
23 -43 9 -22 -12 -23 -11 -5 8 16 19 16 20 -8 31 -37 17 -62 15 -85 -8z"/>
<path d="M6116 1913 c-12 -12 -5 -23 14 -23 11 0 20 4 20 9 0 11 -26 22 -34
14z"/>
<path d="M6167 1894 c-10 -11 3 -24 24 -24 23 0 25 15 3 24 -19 7 -19 7 -27 0z"/>
<path d="M2896 1872 c-3 -6 1 -13 10 -16 23 -9 28 -2 10 13 -8 7 -17 8 -20 3z"/>
<path d="M3257 1873 c-13 -13 -7 -53 8 -53 8 0 15 8 15 18 0 22 -14 44 -23 35z"/>
<path d="M6250 1860 c-12 -8 -9 -10 13 -10 16 0 26 4 22 10 -8 12 -16 12 -35
0z"/>
<path d="M6361 1836 c-22 -12 -22 -13 -4 -18 10 -3 24 1 31 8 24 26 11 31 -27
10z"/>
<path d="M2993 1833 c-19 -7 -16 -19 5 -19 10 0 19 6 19 13 0 14 -4 15 -24 6z"/>
<path d="M2763 1800 c-24 -14 -31 -24 -26 -37 9 -24 35 -44 50 -38 6 2 14 -1
16 -8 3 -7 4 -2 4 11 -1 12 -4 22 -7 22 -4 0 -7 7 -7 15 0 13 3 13 19 -2 10
-9 18 -11 18 -5 0 6 -5 14 -11 17 -6 4 -14 16 -17 26 -7 18 -8 18 -39 -1z"/>
<path d="M2869 1803 c-12 -15 -12 -16 3 -11 10 4 19 1 22 -8 3 -8 17 -14 30
-14 24 0 25 2 14 25 -13 29 -49 33 -69 8z"/>
<path d="M3125 1800 c4 -6 11 -8 16 -5 14 9 11 15 -7 15 -8 0 -12 -5 -9 -10z"/>
<path d="M6166 1770 c-26 -22 -52 -40 -57 -40 -5 0 -6 -7 -3 -15 5 -12 -4 -15
-46 -15 -52 0 -90 -13 -90 -30 0 -6 5 -10 10 -10 6 0 19 -9 30 -20 24 -24 19
-25 -21 -4 -30 15 -30 15 -19 -6 6 -11 23 -26 38 -33 15 -6 30 -16 34 -21 7
-10 101 -11 149 -1 21 5 28 1 38 -21 6 -15 15 -24 18 -20 3 3 12 -2 18 -11 11
-15 13 -14 19 13 6 30 36 233 36 244 0 11 -49 30 -78 30 -16 -1 -46 -17 -76
-40z"/>
<path d="M3120 1735 c0 -16 6 -25 15 -25 9 0 15 9 15 25 0 16 -6 25 -15 25 -9
0 -15 -9 -15 -25z"/>
<path d="M3186 1643 c-12 -13 -6 -53 9 -53 9 0 15 9 15 24 0 26 -12 40 -24 29z"/>
<path d="M3240 1619 c0 -38 24 -35 28 4 2 19 -1 27 -12 27 -11 0 -16 -10 -16
-31z"/>
<path d="M3120 1610 c0 -20 5 -30 15 -30 10 0 15 10 15 30 0 20 -5 30 -15 30
-10 0 -15 -10 -15 -30z"/>
<path d="M283 1370 c-25 -10 -31 -30 -10 -30 6 -1 1 -7 -13 -15 l-25 -15 30 6
c17 4 34 7 39 8 4 0 10 -7 11 -18 2 -10 9 -24 15 -30 9 -8 10 -4 5 17 -7 25
-5 27 22 27 29 0 53 15 53 33 0 5 -11 7 -25 5 -14 -3 -23 -1 -22 6 3 14 -51
18 -80 6z"/>
<path d="M2516 1343 c-3 -3 -1 -12 5 -20 9 -10 8 -13 -5 -13 -22 0 -31 4 -29
11 1 4 -7 5 -18 2 -25 -7 -15 -16 30 -32 24 -8 38 -8 45 -1 7 7 6 10 -1 10 -7
0 -10 9 -8 20 4 20 -7 34 -19 23z"/>
<path d="M2695 1330 c-3 -6 1 -7 9 -4 18 7 21 14 7 14 -6 0 -13 -4 -16 -10z"/>
<path d="M2599 1307 c-14 -10 -14 -14 -3 -25 17 -16 27 -15 21 2 -3 7 0 19 6
25 15 15 -4 14 -24 -2z"/>
<path d="M2647 1293 c-10 -9 -9 -23 2 -23 5 0 11 7 15 15 5 15 -5 20 -17 8z"/>
<path d="M2725 1290 c3 -5 8 -10 11 -10 2 0 4 5 4 10 0 6 -5 10 -11 10 -5 0
-7 -4 -4 -10z"/>
<path d="M2470 1240 c0 -11 5 -20 10 -20 6 0 10 9 10 20 0 11 -4 20 -10 20 -5
0 -10 -9 -10 -20z"/>
<path d="M2625 1250 c-8 -13 5 -13 25 0 13 8 13 10 -2 10 -9 0 -20 -4 -23 -10z"/>
<path d="M2542 1220 c0 -14 2 -19 5 -12 2 6 2 18 0 25 -3 6 -5 1 -5 -13z"/>
<path d="M2654 1233 c8 -8 56 -11 51 -3 -3 4 -16 8 -30 8 -14 0 -24 -3 -21 -5z"/>
<path d="M2612 1190 c0 -14 2 -19 5 -12 2 6 2 18 0 25 -3 6 -5 1 -5 -13z"/>
<path d="M2674 1165 c4 -24 16 -30 16 -7 0 12 -4 22 -9 22 -5 0 -8 -7 -7 -15z"/>
<path d="M2472 1134 c2 -15 9 -29 16 -30 7 -1 8 0 2 3 -5 2 -10 9 -10 14 0 6
4 8 9 5 5 -4 8 2 7 11 -5 30 -28 28 -24 -3z"/>
<path d="M2533 1111 c2 -12 9 -27 16 -34 10 -10 12 -6 9 17 -2 16 -9 31 -16
34 -8 2 -11 -4 -9 -17z"/>
<path d="M2600 1076 c0 -16 6 -26 15 -26 10 0 14 8 12 22 -5 32 -27 35 -27 4z"/>
<path d="M2670 1046 c0 -17 5 -26 16 -26 10 0 14 7 12 22 -5 32 -28 35 -28 4z"/>
<path d="M2820 1015 c0 -8 2 -15 4 -15 2 0 11 -3 20 -6 10 -4 16 -1 16 9 0 8
-7 18 -16 21 -22 9 -24 8 -24 -9z"/>
<path d="M3060 1010 c0 -5 5 -10 10 -10 6 0 10 5 10 10 0 6 -4 10 -10 10 -5 0
-10 -4 -10 -10z"/>
<path d="M2808 910 c-3 -17 -1 -33 4 -36 4 -3 8 11 8 30 0 44 -6 47 -12 6z"/>
<path d="M3014 925 c-9 -21 -2 -26 13 -10 8 9 9 16 3 20 -6 3 -13 -1 -16 -10z"/>
<path d="M2508 860 c-4 -27 -3 -29 21 -23 14 3 37 10 51 16 l25 9 -30 14 c-48
21 -62 17 -67 -16z"/>
<path d="M2786 854 c-3 -8 -12 -14 -21 -14 -24 0 -17 -17 9 -22 18 -4 27 1 35
18 7 17 7 24 -4 28 -7 2 -16 -2 -19 -10z"/>
<path d="M3065 860 c-3 -6 1 -7 9 -4 18 7 21 14 7 14 -6 0 -13 -4 -16 -10z"/>
<path d="M2821 842 c-7 -14 -6 -18 9 -19 13 -1 16 4 13 18 -7 24 -10 24 -22 1z"/>
<path d="M2990 847 c0 -4 -5 -5 -12 -1 -7 5 -8 3 -4 -5 5 -7 14 -10 22 -7 8 3
14 1 14 -4 0 -14 28 -1 34 16 4 11 -2 14 -24 12 -17 -1 -30 -6 -30 -11z"/>
<path d="M2776 775 c-9 -26 -7 -32 5 -12 6 10 9 21 6 23 -2 3 -7 -2 -11 -11z"/>
<path d="M1825 30 c-3 -5 -1 -10 4 -10 6 0 11 5 11 10 0 6 -2 10 -4 10 -3 0
-8 -4 -11 -10z"/>
</g>
</svg>
