<svg xmlns="http://www.w3.org/2000/svg" xmlns:xlink="http://www.w3.org/1999/xlink" width="1600" zoomAndPan="magnify" viewBox="0 0 1200 675.000002" height="900" preserveAspectRatio="xMidYMid meet" version="1.0"><defs><g/></defs><g fill="#3774d0" fill-opacity="1"><g transform="translate(26.784939, 423.891322)"><g><path d="M 41.828125 0 L 5.515625 0 L 40.578125 -174.84375 L 108.71875 -174.84375 C 125.414062 -174.84375 138.398438 -170.914062 147.671875 -163.0625 C 156.941406 -155.21875 161.578125 -144.117188 161.578125 -129.765625 C 161.578125 -123.242188 160.65625 -116.851562 158.8125 -110.59375 C 156.976562 -104.332031 154.222656 -98.488281 150.546875 -93.0625 C 146.878906 -87.632812 142.414062 -82.875 137.15625 -78.78125 C 131.894531 -74.6875 125.753906 -71.472656 118.734375 -69.140625 L 139.78125 0 L 100.953125 0 L 83.671875 -64.875 L 54.859375 -64.875 Z M 98.453125 -95.9375 C 104.128906 -95.9375 109.007812 -97.4375 113.09375 -100.4375 C 117.1875 -103.445312 119.898438 -108.046875 121.234375 -114.234375 C 122.078125 -118.066406 122.75 -121.191406 123.25 -123.609375 C 123.75 -126.035156 124 -127.921875 124 -129.265625 C 124 -133.097656 122.703125 -136.304688 120.109375 -138.890625 C 117.523438 -141.484375 113.476562 -142.78125 107.96875 -142.78125 L 70.390625 -142.78125 L 61.125 -95.9375 Z M 98.453125 -95.9375 "/></g></g></g><g fill="#3774d0" fill-opacity="1"><g transform="translate(190.8293, 423.891322)"><g><path d="M 63.375 3 C 44.675781 3 30.734375 -2.046875 21.546875 -12.140625 C 12.359375 -22.242188 7.765625 -36.066406 7.765625 -53.609375 C 7.765625 -64.128906 9.429688 -74.273438 12.765625 -84.046875 C 16.109375 -93.816406 20.867188 -102.414062 27.046875 -109.84375 C 33.234375 -117.269531 40.75 -123.238281 49.59375 -127.75 C 58.445312 -132.257812 68.300781 -134.515625 79.15625 -134.515625 C 84.164062 -134.515625 89.425781 -133.929688 94.9375 -132.765625 C 100.445312 -131.597656 105.5 -129.632812 110.09375 -126.875 C 114.6875 -124.125 118.523438 -120.410156 121.609375 -115.734375 C 124.703125 -111.054688 126.25 -105.128906 126.25 -97.953125 C 126.25 -91.097656 124.660156 -84.957031 121.484375 -79.53125 C 118.316406 -74.101562 113.390625 -69.425781 106.703125 -65.5 C 100.023438 -61.582031 91.425781 -58.492188 80.90625 -56.234375 C 70.382812 -53.984375 57.78125 -52.609375 43.09375 -52.109375 C 42.75 -50.597656 42.578125 -49.425781 42.578125 -48.59375 C 42.578125 -47.757812 42.578125 -47.007812 42.578125 -46.34375 C 42.578125 -40 44.289062 -34.90625 47.71875 -31.0625 C 51.144531 -27.21875 57.195312 -25.296875 65.875 -25.296875 C 71.5625 -25.296875 76.863281 -26.503906 81.78125 -28.921875 C 86.707031 -31.347656 92.097656 -36.238281 97.953125 -43.59375 L 119.484375 -26.546875 C 111.304688 -15.691406 102.75 -8.050781 93.8125 -3.625 C 84.875 0.789062 74.726562 3 63.375 3 Z M 77.15625 -107.71875 C 69.632812 -107.71875 63.242188 -105.253906 57.984375 -100.328125 C 52.722656 -95.398438 49.34375 -88.675781 47.84375 -80.15625 L 46.84375 -74.40625 C 56.195312 -74.90625 63.835938 -75.738281 69.765625 -76.90625 C 75.691406 -78.070312 80.320312 -79.53125 83.65625 -81.28125 C 87 -83.039062 89.253906 -85.003906 90.421875 -87.171875 C 91.597656 -89.347656 92.1875 -91.769531 92.1875 -94.4375 C 92.1875 -97.28125 91.679688 -99.578125 90.671875 -101.328125 C 89.671875 -103.078125 88.421875 -104.410156 86.921875 -105.328125 C 85.421875 -106.253906 83.789062 -106.882812 82.03125 -107.21875 C 80.28125 -107.550781 78.65625 -107.71875 77.15625 -107.71875 Z M 77.15625 -107.71875 "/></g></g></g><g fill="#3774d0" fill-opacity="1"><g transform="translate(319.810761, 423.891322)"><g><path d="M 59.375 3 C 52.1875 3 45.460938 1.957031 39.203125 -0.125 C 32.941406 -2.207031 27.472656 -5.546875 22.796875 -10.140625 C 18.117188 -14.734375 14.441406 -20.617188 11.765625 -27.796875 C 9.097656 -34.984375 7.765625 -43.671875 7.765625 -53.859375 C 7.765625 -65.546875 9.515625 -76.316406 13.015625 -86.171875 C 16.523438 -96.023438 21.410156 -104.539062 27.671875 -111.71875 C 33.941406 -118.90625 41.332031 -124.5 49.84375 -128.5 C 58.363281 -132.507812 67.632812 -134.515625 77.65625 -134.515625 C 83.832031 -134.515625 89.632812 -133.722656 95.0625 -132.140625 C 100.488281 -130.554688 105.25 -128.257812 109.34375 -125.25 C 113.4375 -122.238281 116.816406 -118.644531 119.484375 -114.46875 C 122.160156 -110.300781 123.914062 -105.628906 124.75 -100.453125 L 95.1875 -89.171875 C 93.6875 -94.347656 91.640625 -98.484375 89.046875 -101.578125 C 86.460938 -104.671875 82 -106.21875 75.65625 -106.21875 C 61.125 -106.21875 52.019531 -97.03125 48.34375 -78.65625 L 43.84375 -56.359375 C 43 -52.515625 42.578125 -49.007812 42.578125 -45.84375 C 42.578125 -39.664062 44.125 -34.695312 47.21875 -30.9375 C 50.3125 -27.175781 55.363281 -25.296875 62.375 -25.296875 C 65.71875 -25.296875 68.640625 -25.796875 71.140625 -26.796875 C 73.648438 -27.804688 75.863281 -29.226562 77.78125 -31.0625 C 79.695312 -32.894531 81.488281 -35.0625 83.15625 -37.5625 C 84.832031 -40.070312 86.585938 -42.914062 88.421875 -46.09375 L 115.234375 -33.5625 C 109.390625 -21.375 101.75 -12.234375 92.3125 -6.140625 C 82.875 -0.046875 71.894531 3 59.375 3 Z M 59.375 3 "/></g></g></g><g fill="#3774d0" fill-opacity="1"><g transform="translate(443.532751, 423.891322)"><g><path d="M 30.5625 0 C 23.71875 0 18.25 -1.832031 14.15625 -5.5 C 10.0625 -9.175781 8.015625 -14.023438 8.015625 -20.046875 C 8.015625 -21.710938 8.265625 -23.796875 8.765625 -26.296875 L 40.578125 -185.375 L 75.65625 -185.375 L 44.09375 -28.0625 L 59.625 -28.0625 L 54.109375 0 Z M 30.5625 0 "/></g></g></g><g fill="#3774d0" fill-opacity="1"><g transform="translate(513.909063, 423.891322)"><g><path d="M 107.71875 0 C 101.375 0 96.113281 -1.664062 91.9375 -5 C 87.757812 -8.34375 85.671875 -13.101562 85.671875 -19.28125 C 85.671875 -20.625 85.753906 -22.046875 85.921875 -23.546875 C 86.085938 -25.046875 86.253906 -26.128906 86.421875 -26.796875 L 87.171875 -30.5625 L 85.671875 -30.5625 C 80.492188 -19.875 74.644531 -11.609375 68.125 -5.765625 C 61.613281 0.078125 53.179688 3 42.828125 3 C 36.648438 3 31.347656 1.875 26.921875 -0.375 C 22.503906 -2.625 18.875 -5.796875 16.03125 -9.890625 C 13.195312 -13.984375 11.109375 -18.828125 9.765625 -24.421875 C 8.429688 -30.015625 7.765625 -36.066406 7.765625 -42.578125 C 7.765625 -56.609375 9.390625 -69.257812 12.640625 -80.53125 C 15.898438 -91.800781 20.285156 -101.445312 25.796875 -109.46875 C 31.304688 -117.488281 37.773438 -123.664062 45.203125 -128 C 52.640625 -132.34375 60.535156 -134.515625 68.890625 -134.515625 C 78.078125 -134.515625 85.632812 -132.007812 91.5625 -127 C 97.488281 -121.988281 100.867188 -115.894531 101.703125 -108.71875 L 102.953125 -108.71875 L 107.46875 -131.515625 L 142.53125 -131.515625 L 121.75 -28.0625 L 136.515625 -28.0625 L 131.015625 0 Z M 60.125 -25.796875 C 64.632812 -25.796875 68.722656 -26.960938 72.390625 -29.296875 C 76.066406 -31.640625 79.238281 -34.484375 81.90625 -37.828125 C 84.75 -41.160156 87.210938 -45.125 89.296875 -49.71875 C 91.390625 -54.3125 92.9375 -59.03125 93.9375 -63.875 L 97.953125 -83.921875 C 99.285156 -90.097656 98.03125 -95.273438 94.1875 -99.453125 C 90.34375 -103.628906 84.75 -105.71875 77.40625 -105.71875 C 62.207031 -105.71875 52.601562 -95.945312 48.59375 -76.40625 L 45.09375 -58.875 C 44.757812 -57.03125 44.425781 -54.6875 44.09375 -51.84375 C 43.757812 -49.007812 43.59375 -46.59375 43.59375 -44.59375 C 43.59375 -38.75 45.050781 -34.15625 47.96875 -30.8125 C 50.894531 -27.46875 54.945312 -25.796875 60.125 -25.796875 Z M 60.125 -25.796875 "/></g></g></g><g fill="#3774d0" fill-opacity="1"><g transform="translate(661.924664, 423.891322)"><g><path d="M 3.5 0 L 29.8125 -131.515625 L 64.875 -131.515625 L 58.875 -100.953125 L 60.375 -100.953125 C 65.21875 -111.304688 70.976562 -119.488281 77.65625 -125.5 C 84.332031 -131.507812 92.679688 -134.515625 102.703125 -134.515625 C 112.554688 -134.515625 120.070312 -131.550781 125.25 -125.625 C 130.425781 -119.695312 133.097656 -111.472656 133.265625 -100.953125 L 134.515625 -100.953125 C 139.359375 -110.804688 145.203125 -118.863281 152.046875 -125.125 C 158.898438 -131.382812 167.585938 -134.515625 178.109375 -134.515625 C 187.796875 -134.515625 195.1875 -131.550781 200.28125 -125.625 C 205.375 -119.695312 207.921875 -111.554688 207.921875 -101.203125 C 207.921875 -97.359375 207.625 -93.554688 207.03125 -89.796875 C 206.445312 -86.046875 205.738281 -82.25 204.90625 -78.40625 L 194.890625 -28.0625 L 208.171875 -28.0625 L 202.65625 0 L 179.859375 0 C 173.179688 0 168.003906 -1.707031 164.328125 -5.125 C 160.648438 -8.550781 158.8125 -13.1875 158.8125 -19.03125 C 158.8125 -20.539062 158.894531 -21.921875 159.0625 -23.171875 C 159.226562 -24.421875 159.394531 -25.378906 159.5625 -26.046875 L 169.84375 -78.15625 C 170.34375 -80.488281 170.800781 -82.820312 171.21875 -85.15625 C 171.632812 -87.5 171.84375 -89.757812 171.84375 -91.9375 C 171.84375 -95.945312 170.960938 -99.160156 169.203125 -101.578125 C 167.453125 -103.992188 164.660156 -105.203125 160.828125 -105.203125 C 156.984375 -105.203125 153.304688 -104.078125 149.796875 -101.828125 C 146.285156 -99.578125 143.113281 -96.78125 140.28125 -93.4375 C 137.4375 -90.09375 134.929688 -86.082031 132.765625 -81.40625 C 130.597656 -76.738281 129.09375 -72.148438 128.25 -67.640625 L 114.734375 0 L 79.65625 0 L 95.1875 -78.15625 C 95.6875 -80.488281 96.101562 -82.820312 96.4375 -85.15625 C 96.769531 -87.5 96.9375 -89.675781 96.9375 -91.6875 C 96.9375 -95.863281 96.0625 -99.160156 94.3125 -101.578125 C 92.5625 -103.992188 89.515625 -105.203125 85.171875 -105.203125 C 80.828125 -105.203125 76.941406 -104.078125 73.515625 -101.828125 C 70.097656 -99.578125 66.96875 -96.695312 64.125 -93.1875 C 58.113281 -85.832031 54.109375 -77.316406 52.109375 -67.640625 L 38.578125 0 Z M 3.5 0 "/></g></g></g><g fill="#fe5a8f" fill-opacity="1"><g transform="translate(881.634778, 423.891322)"><g><path d="M 5.515625 0 L 40.578125 -174.84375 L 153.0625 -174.84375 L 146.546875 -142.78125 L 70.640625 -142.78125 L 62.875 -104.453125 L 130.015625 -104.453125 L 123.5 -72.390625 L 56.359375 -72.390625 L 48.34375 -32.0625 L 127 -32.0625 L 120.484375 0 Z M 5.515625 0 "/></g></g></g><g fill="#fe5a8f" fill-opacity="1"><g transform="translate(1026.39457, 423.891322)"><g><path d="M 63.875 3 C 49.34375 3 36.441406 0.664062 25.171875 -4 C 13.898438 -8.675781 5.09375 -16.695312 -1.25 -28.0625 L 26.546875 -49.84375 C 30.890625 -42.832031 35.941406 -37.65625 41.703125 -34.3125 C 47.460938 -30.976562 54.851562 -29.3125 63.875 -29.3125 C 74.394531 -29.3125 82.578125 -31.648438 88.421875 -36.328125 C 94.265625 -41.003906 97.1875 -47.015625 97.1875 -54.359375 C 97.1875 -59.703125 95.265625 -63.707031 91.421875 -66.375 C 87.585938 -69.050781 82.832031 -71.054688 77.15625 -72.390625 L 65.625 -74.90625 C 59.28125 -76.238281 53.519531 -78.113281 48.34375 -80.53125 C 43.164062 -82.957031 38.738281 -86.046875 35.0625 -89.796875 C 31.394531 -93.554688 28.597656 -98.023438 26.671875 -103.203125 C 24.753906 -108.378906 23.796875 -114.476562 23.796875 -121.5 C 23.796875 -129.507812 25.421875 -136.9375 28.671875 -143.78125 C 31.929688 -150.632812 36.484375 -156.566406 42.328125 -161.578125 C 48.179688 -166.585938 55.28125 -170.550781 63.625 -173.46875 C 71.976562 -176.394531 81.164062 -177.859375 91.1875 -177.859375 C 104.207031 -177.859375 115.9375 -175.8125 126.375 -171.71875 C 136.8125 -167.625 145.035156 -161.570312 151.046875 -153.5625 L 124.75 -130.015625 C 120.738281 -135.523438 116.101562 -139.488281 110.84375 -141.90625 C 105.582031 -144.332031 98.523438 -145.546875 89.671875 -145.546875 C 80.660156 -145.546875 73.523438 -143.625 68.265625 -139.78125 C 63.003906 -135.9375 60.375 -130.925781 60.375 -124.75 C 60.375 -119.738281 62 -115.976562 65.25 -113.46875 C 68.507812 -110.96875 73.144531 -109.050781 79.15625 -107.71875 L 90.1875 -105.203125 C 96.863281 -103.703125 102.957031 -101.695312 108.46875 -99.1875 C 113.976562 -96.6875 118.648438 -93.554688 122.484375 -89.796875 C 126.328125 -86.046875 129.332031 -81.582031 131.5 -76.40625 C 133.675781 -71.226562 134.765625 -65.210938 134.765625 -58.359375 C 134.765625 -50.847656 133.132812 -43.414062 129.875 -36.0625 C 126.625 -28.71875 121.953125 -22.164062 115.859375 -16.40625 C 109.765625 -10.644531 102.332031 -5.96875 93.5625 -2.375 C 84.789062 1.207031 74.894531 3 63.875 3 Z M 63.875 3 "/></g></g></g></svg>