<svg version="1.2" xmlns="http://www.w3.org/2000/svg" viewBox="0 0 1161 216" width="1161" height="216">
	<title>Cópia de ReclamES - logotipos (1600 x 900 px)-svg</title>
	<style>
		.s0 { fill: #3774d0 } 
		.s1 { fill: #fe5a8f } 
	</style>
	<g id="Layer">
		<g id="Layer">
			<g id="Layer">
				<path id="Layer" fill-rule="evenodd" class="s0" d="m43.6 200.9h-36.3l35.1-174.9h68.1q25 0 39 11.8 13.9 11.8 13.9 33.3 0 9.8-2.8 19.2-2.8 9.4-8.3 17.5-5.5 8.2-13.4 14.3-7.9 6.2-18.4 9.7l21.1 69.1h-38.9l-17.2-64.9h-28.9zm56.7-95.9q8.5 0 14.6-4.5 6.1-4.5 8.2-13.8 1.2-5.8 2-9.4 0.7-3.6 0.7-5.6 0-5.8-3.9-9.7-3.9-3.9-12.1-3.9h-37.6l-9.3 46.9z"/>
			</g>
		</g>
	</g>
	<g id="Layer">
		<g id="Layer">
			<g id="Layer">
				<path id="Layer" fill-rule="evenodd" class="s0" d="m229.2 203.9q-28 0-41.8-15.1-13.8-15.2-13.8-41.5 0-15.8 5-30.5 5-14.6 14.3-25.8 9.3-11.1 22.5-17.9 13.3-6.7 29.6-6.7 7.5 0 15.8 1.7 8.2 1.8 15.1 5.9 6.9 4.1 11.5 11.2 4.7 7 4.7 17.7 0 10.3-4.8 18.5-4.7 8.1-14.8 14-10 5.9-25.8 9.3-15.7 3.3-37.8 4.1-0.5 2.2-0.5 3.5 0 1.3 0 2.2 0 9.6 5.1 15.3 5.2 5.8 18.2 5.8 8.5 0 15.9-3.6 7.4-3.7 16.2-14.7l21.5 17q-12.3 16.3-25.7 23-13.4 6.6-30.4 6.6zm13.8-110.7q-11.3 0-19.2 7.4-7.9 7.4-10.1 20.1l-1 5.8q14-0.8 22.9-2.5 8.9-1.8 13.9-4.4 5-2.6 6.8-5.9 1.7-3.2 1.7-7.2 0-4.3-1.5-6.9-1.5-2.7-3.7-4-2.3-1.4-4.9-1.9-2.7-0.5-4.9-0.5z"/>
			</g>
		</g>
	</g>
	<g id="Layer">
		<g id="Layer">
			<g id="Layer">
				<path id="Layer" class="s0" d="m354.2 203.9q-10.8 0-20.2-3.1-9.4-3.2-16.4-10-7-6.9-11-17.7-4-10.8-4-26.1 0-17.5 5.2-32.3 5.3-14.8 14.7-25.5 9.4-10.8 22.2-16.8 12.7-6 27.8-6 9.2 0 17.4 2.4 8.1 2.3 14.3 6.8 6.1 4.6 10.1 10.8 4 6.3 5.3 14l-29.6 11.3q-2.3-7.7-6.1-12.4-3.9-4.6-13.4-4.6-21.8 0-27.3 27.5l-4.5 22.3q-1.3 5.8-1.3 10.5 0 9.3 4.6 15 4.7 5.6 15.2 5.6 5 0 8.8-1.5 3.7-1.5 6.6-4.3 2.9-2.7 5.4-6.5 2.5-3.7 5.2-8.5l26.8 12.5q-8.7 18.3-22.9 27.5-14.1 9.1-32.9 9.1z"/>
			</g>
		</g>
	</g>
	<g id="Layer">
		<g id="Layer">
			<g id="Layer">
				<path id="Layer" class="s0" d="m449.1 200.9q-10.3 0-16.4-5.5-6.2-5.5-6.2-14.6 0-2.5 0.8-6.2l31.8-159.1h35.1l-31.6 157.3h15.6l-5.6 28.1z"/>
			</g>
		</g>
	</g>
	<g id="Layer">
		<g id="Layer">
			<g id="Layer">
				<path id="Layer" fill-rule="evenodd" class="s0" d="m596.6 200.9q-9.5 0-15.8-5-6.2-5-6.2-14.3 0-2 0.2-4.3 0.3-2.2 0.5-3.2l0.8-3.8h-1.5q-7.8 16.1-17.6 24.8-9.7 8.8-25.3 8.8-9.2 0-15.9-3.4-6.6-3.4-10.9-9.5-4.2-6.1-6.2-14.5-2-8.4-2-18.2 0-21 4.8-37.9 4.9-16.9 13.2-29 8.3-12 19.4-18.5 11.2-6.5 23.7-6.5 13.8 0 22.7 7.5 8.9 7.5 10.1 18.3h1.3l4.5-22.8h35l-20.7 103.4h14.7l-5.5 28.1zm-47.6-25.8q6.8 0 12.3-3.5 5.5-3.5 9.5-8.5 4.3-5 7.4-11.9 3.1-6.9 4.6-14.2l4.1-20q2-9.3-3.8-15.6-5.8-6.2-16.8-6.2-22.8 0-28.8 29.3l-3.5 17.5q-0.5 2.8-1 7-0.5 4.3-0.5 7.3 0 8.8 4.4 13.8 4.4 5 12.1 5z"/>
			</g>
		</g>
	</g>
	<g id="Layer">
		<g id="Layer">
			<g id="Layer">
				<path id="Layer" class="s0" d="m640.4 200.9l26.3-131.5h35.1l-6 30.5h1.5q7.3-15.5 17.3-24.5 10-9 25-9 14.8 0 22.6 8.9 7.7 8.9 8 24.6h1.2q7.3-14.7 17.6-24.1 10.2-9.4 26-9.4 14.6 0 22.2 8.9 7.6 8.9 7.6 24.4 0 5.8-0.8 11.4-0.9 5.6-2.2 11.4l-10 50.3h13.3l-5.5 28.1h-22.8q-10 0-15.5-5.1-5.6-5.2-5.6-13.9 0-2.3 0.3-4.2 0.2-1.9 0.5-2.9l10.3-52.1q0.7-3.5 1.3-7 0.7-3.5 0.7-6.7 0-6.1-2.7-9.7-2.6-3.6-8.3-3.6-5.8 0-11.1 3.4-5.2 3.3-9.5 8.4-4.3 5-7.5 12-3.3 7-4.5 13.8l-13.5 67.6h-35.1l15.5-78.2q0.8-3.5 1.3-7 0.5-3.5 0.5-6.5 0-6.3-2.7-9.9-2.6-3.6-9.1-3.6-6.5 0-11.7 3.4-5.1 3.3-9.4 8.6-9 11-12 25.6l-13.5 67.6z"/>
			</g>
		</g>
	</g>
	<g id="Layer">
		<g id="Layer">
			<g id="Layer">
				<path id="Layer" class="s1" d="m862.2 200.9l35-174.9h112.5l-6.5 32.1h-75.9l-7.8 38.3h67.2l-6.6 32.1h-67.1l-8 40.3h78.6l-6.5 32.1z"/>
			</g>
		</g>
	</g>
	<g id="Layer">
		<g id="Layer">
			<g id="Layer">
				<path id="Layer" class="s1" d="m1065.3 203.9q-21.8 0-38.7-7-16.9-7-26.5-24.1l27.8-21.8q6.6 10.6 15.2 15.6 8.6 5 22.2 5 15.7 0 24.5-7 8.8-7.1 8.8-18.1 0-8-5.8-12-5.7-4-14.2-6l-11.6-2.5q-9.5-2-17.3-5.6-7.7-3.7-13.2-9.3-5.5-5.6-8.4-13.4-2.9-7.8-2.9-18.3 0-12 4.9-22.3 4.9-10.3 13.6-17.8 8.8-7.5 21.3-11.9 12.5-4.4 27.6-4.4 19.5 0 35.2 6.2 15.6 6.1 24.6 18.1l-26.3 23.6q-6-8.3-13.9-11.9-7.9-3.7-21.1-3.7-13.6 0-21.4 5.8-7.9 5.8-7.9 15 0 7.6 4.8 11.3 4.9 3.8 14 5.8l11 2.5q10 2.2 18.3 6 8.2 3.8 14 9.4 5.7 5.6 9 13.4 3.3 7.8 3.3 18 0 11.3-4.9 22.3-4.9 11-14 19.7-9.2 8.6-22.3 14-13.2 5.4-29.7 5.4z"/>
			</g>
		</g>
	</g>
</svg>